<?xml version="1.0" standalone="no"?>
<!DOCTYPE svg PUBLIC "-//W3C//DTD SVG 20010904//EN"
 "http://www.w3.org/TR/2001/REC-SVG-20010904/DTD/svg10.dtd">
<svg version="1.0" xmlns="http://www.w3.org/2000/svg"
 width="1024.000000pt" height="1024.000000pt" viewBox="0 0 1024.000000 1024.000000"
 preserveAspectRatio="xMidYMid meet">

<g transform="translate(0.000000,1024.000000) scale(0.100000,-0.100000)"
fill="#000000" stroke="none">
<path d="M1295 9967 c-4 -32 -11 -57 -16 -57 -5 0 -9 -11 -9 -25 0 -14 -4 -25
-10 -25 -5 0 -10 -13 -10 -30 0 -16 -4 -30 -10 -30 -5 0 -10 -11 -10 -25 0
-14 -4 -25 -10 -25 -5 0 -10 -18 -10 -40 0 -22 -4 -40 -9 -40 -5 0 -12 -31
-16 -70 -4 -38 -11 -70 -16 -70 -5 0 -9 -20 -9 -45 0 -25 -4 -45 -10 -45 -5 0
-10 -25 -10 -55 0 -30 -4 -55 -10 -55 -6 0 -10 -35 -10 -85 0 -50 -4 -85 -10
-85 -6 0 -10 -117 -10 -330 0 -213 4 -330 10 -330 6 0 10 -35 10 -85 0 -50 4
-85 10 -85 6 0 10 -28 10 -65 0 -37 4 -65 10 -65 6 0 10 -25 10 -55 0 -30 4
-55 9 -55 4 0 12 -36 15 -80 4 -44 12 -80 17 -80 5 0 9 -16 9 -35 0 -19 5 -35
10 -35 6 0 10 -18 10 -40 0 -22 5 -40 10 -40 6 0 10 -11 10 -25 0 -14 5 -25
10 -25 6 0 10 -18 10 -40 0 -22 4 -40 9 -40 5 0 13 -25 16 -55 4 -30 11 -55
16 -55 5 0 9 -11 9 -25 0 -14 5 -25 10 -25 6 0 10 -9 10 -20 0 -11 5 -20 10
-20 6 0 10 -11 10 -25 0 -14 5 -25 10 -25 6 0 10 -9 10 -20 0 -11 4 -20 9 -20
4 0 11 -19 14 -42 3 -24 11 -44 16 -46 6 -2 11 -12 11 -23 0 -10 5 -19 10 -19
6 0 10 -11 10 -25 0 -14 5 -25 10 -25 6 0 10 -9 10 -20 0 -11 5 -20 10 -20 6
0 10 -9 10 -20 0 -11 4 -20 10 -20 5 0 12 -16 16 -35 3 -19 10 -35 15 -35 5 0
9 -7 9 -16 0 -8 7 -22 15 -30 13 -14 17 -14 30 0 8 8 15 20 15 26 0 6 6 18 13
25 27 31 37 44 37 51 0 3 14 19 30 34 17 15 30 35 30 43 0 8 7 17 15 21 8 3
15 14 15 23 0 10 9 25 20 33 11 8 20 22 20 32 0 9 9 20 20 23 11 3 20 13 20
21 0 9 7 23 16 31 12 12 14 27 9 67 -4 28 -11 53 -16 54 -5 2 -9 12 -9 23 0
10 -4 19 -10 19 -5 0 -10 7 -10 15 0 8 -4 15 -10 15 -5 0 -10 9 -10 20 0 11
-4 20 -10 20 -5 0 -10 9 -10 19 0 11 -5 21 -11 23 -5 2 -13 22 -16 46 -3 23
-10 42 -14 42 -5 0 -9 11 -9 25 0 14 -4 25 -10 25 -5 0 -10 9 -10 20 0 11 -4
20 -10 20 -5 0 -10 14 -10 30 0 17 -4 30 -10 30 -5 0 -10 11 -10 25 0 14 -4
25 -9 25 -5 0 -12 34 -16 75 -4 41 -11 75 -16 75 -5 0 -9 16 -9 35 0 19 -4 35
-10 35 -5 0 -10 16 -10 35 0 19 -4 35 -10 35 -5 0 -10 23 -10 50 0 28 -4 50
-10 50 -5 0 -10 24 -10 54 0 33 -5 56 -12 58 -18 6 -18 590 0 595 7 3 12 21
12 44 0 21 5 39 10 39 6 0 10 16 10 35 0 19 5 35 10 35 6 0 10 9 10 20 0 11 5
20 10 20 6 0 10 7 10 15 0 8 5 15 10 15 6 0 10 9 10 19 0 11 7 26 15 35 8 8
15 22 15 30 0 9 12 19 28 22 15 4 34 15 43 26 9 10 21 18 28 18 6 0 11 5 11
10 0 6 9 10 20 10 11 0 20 5 20 10 0 6 40 10 100 10 60 0 100 -4 100 -10 0 -5
18 -10 40 -10 22 0 40 -4 40 -10 0 -5 11 -10 25 -10 14 0 25 -4 25 -10 0 -5 9
-10 20 -10 11 0 20 -4 20 -9 0 -5 15 -13 32 -17 18 -3 40 -15 49 -25 9 -11 24
-19 33 -19 9 0 16 -4 16 -10 0 -5 5 -10 11 -10 7 0 19 -8 28 -18 9 -11 28 -22
43 -25 15 -4 30 -16 33 -27 3 -11 13 -20 21 -20 8 0 30 -16 50 -35 19 -19 39
-35 45 -35 6 0 33 -24 60 -52 88 -94 115 -118 131 -118 8 0 20 -10 28 -21 8
-12 21 -27 28 -33 7 -6 33 -31 57 -55 23 -24 47 -48 53 -53 5 -6 29 -30 53
-54 24 -24 49 -48 54 -53 6 -6 30 -30 55 -55 25 -25 50 -51 57 -58 33 -36 73
-52 73 -29 0 5 20 12 45 15 25 4 45 11 45 17 0 5 9 9 20 9 11 0 20 5 20 10 0
6 11 10 25 10 14 0 25 5 25 10 0 6 9 10 20 10 11 0 20 5 20 10 0 6 9 10 20 10
11 0 20 4 20 10 0 5 16 12 35 16 19 3 35 10 35 15 0 5 9 9 19 9 11 0 23 9 26
20 3 11 13 20 21 20 16 0 64 43 64 57 0 5 -9 15 -20 23 -11 8 -20 20 -20 27 0
15 -355 373 -370 373 -5 0 -39 29 -75 65 -35 36 -69 65 -74 65 -13 0 -101 87
-101 100 0 6 -9 10 -20 10 -10 0 -30 11 -44 25 -14 14 -28 25 -32 25 -3 0 -18
13 -32 28 -15 16 -39 32 -54 36 -16 3 -28 11 -28 16 0 6 -7 10 -15 10 -8 0
-15 5 -15 10 0 6 -8 10 -18 10 -10 0 -24 9 -32 20 -8 11 -22 20 -32 20 -10 0
-18 4 -18 9 0 5 -11 12 -25 15 -14 4 -25 11 -25 16 0 6 -9 10 -20 10 -11 0
-20 5 -20 10 0 6 -7 10 -15 10 -8 0 -15 5 -15 10 0 6 -9 10 -20 10 -11 0 -20
5 -20 10 0 6 -9 10 -20 10 -11 0 -20 4 -20 10 0 5 -16 12 -35 16 -19 3 -35 10
-35 15 0 5 -9 9 -20 9 -11 0 -20 5 -20 10 0 6 -11 10 -25 10 -14 0 -25 5 -25
10 0 6 -9 10 -20 10 -11 0 -20 5 -20 10 0 6 -11 10 -25 10 -14 0 -25 5 -25 10
0 6 -9 10 -20 10 -11 0 -20 4 -20 9 0 5 -25 12 -55 16 -30 3 -55 11 -55 16 0
5 -13 9 -30 9 -16 0 -30 5 -30 10 0 6 -11 10 -25 10 -14 0 -25 5 -25 10 0 6
-18 10 -40 10 -22 0 -40 5 -40 10 0 6 -20 10 -44 10 -24 0 -46 5 -48 11 -2 7
-83 12 -230 16 l-226 6 -7 -56z"/>
<path d="M8813 10013 c-46 -2 -83 -8 -83 -13 0 -6 -22 -10 -50 -10 -27 0 -50
-4 -50 -10 0 -5 -16 -10 -35 -10 -19 0 -35 -4 -35 -10 0 -5 -11 -10 -25 -10
-14 0 -25 -4 -25 -10 0 -5 -13 -10 -30 -10 -16 0 -30 -4 -30 -9 0 -5 -20 -12
-45 -15 -25 -4 -45 -11 -45 -17 0 -5 -13 -9 -30 -9 -16 0 -30 -4 -30 -10 0 -5
-7 -10 -15 -10 -8 0 -15 -4 -15 -10 0 -5 -13 -10 -30 -10 -16 0 -30 -4 -30
-10 0 -5 -7 -10 -15 -10 -8 0 -15 -4 -15 -10 0 -5 -9 -10 -20 -10 -11 0 -20
-4 -20 -9 0 -5 -16 -12 -35 -15 -19 -4 -35 -11 -35 -16 0 -6 -9 -10 -20 -10
-11 0 -20 -4 -20 -10 0 -5 -9 -10 -20 -10 -11 0 -20 -4 -20 -10 0 -5 -9 -10
-20 -10 -11 0 -20 -4 -20 -10 0 -5 -7 -10 -15 -10 -8 0 -15 -4 -15 -10 0 -5
-9 -10 -19 -10 -11 0 -26 -7 -35 -15 -8 -8 -19 -15 -25 -15 -6 0 -11 -4 -11
-10 0 -5 -8 -10 -18 -10 -10 0 -24 -9 -32 -20 -8 -11 -22 -20 -31 -20 -9 0
-19 -7 -23 -15 -3 -8 -14 -15 -23 -15 -10 0 -25 -9 -33 -20 -8 -11 -22 -20
-32 -20 -10 0 -18 -4 -18 -10 0 -16 -50 -60 -68 -60 -10 0 -24 -9 -32 -21 -32
-45 -66 -76 -92 -83 -16 -3 -28 -11 -28 -16 0 -8 -19 -28 -101 -106 -5 -5 -22
-24 -38 -41 -16 -18 -36 -33 -45 -33 -9 0 -16 -4 -16 -9 0 -5 -9 -13 -20 -16
-11 -3 -23 -18 -27 -33 -3 -15 -25 -44 -47 -64 -23 -21 -45 -42 -50 -47 -24
-25 -97 -98 -108 -108 -26 -24 -38 -42 -38 -58 0 -8 -4 -15 -10 -15 -5 0 -10
-6 -10 -14 0 -8 -6 -16 -12 -18 -17 -6 14 -38 36 -38 9 0 16 -4 16 -10 0 -5 7
-10 15 -10 8 0 15 -4 15 -10 0 -5 9 -10 20 -10 11 0 20 -4 20 -9 0 -6 20 -13
45 -17 25 -3 45 -10 45 -15 0 -5 9 -9 20 -9 11 0 20 -4 20 -10 0 -5 7 -10 15
-10 8 0 15 -4 15 -10 0 -5 9 -10 20 -10 11 0 20 -4 20 -10 0 -5 14 -10 30 -10
17 0 30 -4 30 -10 0 -5 16 -12 35 -16 19 -3 35 -10 35 -15 0 -5 11 -9 25 -9
18 0 53 28 130 105 58 58 105 109 105 115 0 13 238 250 251 250 13 0 109 98
109 111 0 5 9 9 20 9 10 0 35 16 54 35 20 19 38 35 41 35 3 0 17 11 31 25 14
14 33 25 42 25 10 0 24 9 32 20 8 11 20 20 27 20 7 0 13 5 13 10 0 6 8 10 18
10 10 0 24 9 32 20 8 11 29 23 47 26 18 3 33 10 33 15 0 5 14 9 30 9 17 0 30
5 30 10 0 6 7 10 15 10 8 0 15 5 15 10 0 6 18 10 40 10 22 0 40 5 40 10 0 6
37 10 90 10 53 0 90 -4 90 -10 0 -5 9 -10 20 -10 11 0 20 -4 20 -10 0 -5 6
-10 13 -10 7 0 19 -9 27 -20 8 -11 22 -20 31 -20 24 0 55 -31 63 -62 3 -16 11
-28 16 -28 6 0 10 -7 10 -15 0 -8 5 -15 10 -15 6 0 10 -9 10 -20 0 -11 5 -20
10 -20 6 0 10 -9 10 -20 0 -11 5 -20 10 -20 6 0 10 -15 10 -34 0 -19 5 -36 11
-38 6 -2 13 -57 16 -141 3 -75 10 -137 14 -137 5 0 9 -25 9 -55 0 -30 -4 -55
-8 -55 -5 0 -12 -78 -16 -172 -3 -98 -11 -174 -16 -176 -6 -2 -10 -24 -10 -48
0 -24 -4 -44 -10 -44 -5 0 -10 -16 -10 -35 0 -19 -4 -35 -10 -35 -5 0 -10 -18
-10 -40 0 -22 -4 -40 -10 -40 -5 0 -10 -16 -10 -35 0 -19 -4 -35 -9 -35 -5 0
-13 -25 -16 -55 -4 -30 -11 -55 -16 -55 -5 0 -9 -11 -9 -25 0 -14 -4 -25 -10
-25 -5 0 -10 -13 -10 -30 0 -16 -4 -30 -10 -30 -5 0 -10 -11 -10 -25 0 -14 -4
-25 -10 -25 -5 0 -10 -9 -10 -20 0 -11 -4 -20 -10 -20 -5 0 -10 -13 -10 -29 0
-16 -5 -31 -11 -33 -5 -2 -13 -22 -16 -46 -3 -23 -10 -42 -14 -42 -5 0 -9 -11
-9 -25 0 -14 -4 -25 -10 -25 -5 0 -10 -9 -10 -20 0 -11 -4 -20 -10 -20 -5 0
-10 -13 -10 -30 0 -16 -4 -30 -10 -30 -5 0 -10 -11 -10 -25 0 -14 5 -25 10
-25 6 0 10 -8 10 -18 0 -10 9 -24 20 -32 11 -8 20 -20 20 -27 0 -7 4 -13 10
-13 5 0 13 -12 16 -27 7 -27 39 -63 56 -63 4 0 8 -7 8 -16 0 -9 14 -29 30 -44
17 -15 30 -33 30 -39 0 -5 11 -21 25 -35 14 -14 25 -30 25 -36 0 -6 7 -18 15
-26 13 -13 17 -14 29 -1 8 8 18 31 21 51 4 20 11 36 16 36 5 0 9 7 9 15 0 8 5
15 10 15 6 0 10 9 10 20 0 11 5 20 10 20 6 0 10 11 10 25 0 14 5 25 10 25 6 0
10 9 10 20 0 11 4 20 9 20 6 0 13 20 17 45 3 25 10 45 15 45 5 0 9 9 9 20 0
11 5 20 10 20 6 0 10 9 10 20 0 11 5 20 10 20 6 0 10 11 10 25 0 14 5 25 10
25 6 0 10 13 10 29 0 16 5 31 11 33 5 2 13 22 16 46 3 23 10 42 14 42 5 0 9
11 9 25 0 14 5 25 10 25 6 0 10 14 10 30 0 17 5 30 10 30 6 0 10 16 10 35 0
19 5 35 10 35 6 0 10 14 10 30 0 17 4 30 9 30 5 0 12 32 16 70 4 39 11 70 16
70 5 0 9 23 9 50 0 28 5 50 10 50 6 0 10 20 10 45 0 25 5 45 10 45 6 0 10 25
10 55 0 30 5 55 10 55 6 0 10 28 10 64 0 43 4 66 13 69 18 6 18 798 -1 805 -8
2 -12 25 -12 63 0 33 -4 59 -10 59 -5 0 -10 25 -10 55 0 30 -4 55 -10 55 -5 0
-10 18 -10 40 0 22 -4 40 -10 40 -5 0 -10 16 -10 35 0 19 -4 35 -9 35 -5 0
-12 29 -16 65 -3 36 -11 65 -16 65 -5 0 -9 11 -9 25 0 14 -4 25 -10 25 -5 0
-10 14 -10 30 0 17 -4 30 -10 30 -5 0 -10 9 -10 20 0 11 -4 20 -10 20 -5 0
-10 7 -10 15 0 8 -4 15 -9 15 -5 0 -12 16 -16 36 -11 63 -22 67 -169 69 -72 1
-168 0 -213 -2z"/>
<path d="M1910 9150 c0 -5 -11 -10 -25 -10 -27 0 -85 -51 -85 -75 0 -8 -4 -15
-10 -15 -5 0 -10 -13 -10 -30 0 -16 -4 -30 -10 -30 -5 0 -10 -20 -10 -45 0
-25 -4 -45 -10 -45 -6 0 -10 -77 -10 -210 0 -133 4 -210 10 -210 6 0 10 -32
10 -75 0 -43 4 -75 10 -75 6 0 10 -25 10 -55 0 -30 5 -55 10 -55 6 0 10 -20
10 -45 0 -25 5 -45 10 -45 6 0 10 -20 10 -45 0 -25 4 -45 9 -45 5 0 12 -29 16
-65 3 -36 11 -65 16 -65 5 0 9 -16 9 -35 0 -19 5 -35 10 -35 6 0 10 -13 10
-30 0 -16 5 -30 10 -30 6 0 10 -11 10 -25 0 -14 5 -25 10 -25 6 0 10 -13 10
-30 0 -16 5 -30 10 -30 6 0 10 -11 10 -25 0 -14 4 -25 9 -25 5 0 12 -25 16
-55 3 -30 11 -55 16 -55 5 0 9 -18 9 -40 0 -22 5 -40 10 -40 6 0 10 -11 10
-25 0 -14 5 -25 10 -25 6 0 10 -18 10 -39 0 -31 -4 -41 -20 -46 -11 -3 -20
-13 -20 -21 0 -9 -7 -22 -15 -30 -8 -9 -15 -24 -15 -34 0 -10 -9 -22 -20 -25
-11 -3 -20 -13 -20 -22 0 -8 -13 -28 -30 -43 -16 -15 -30 -31 -30 -34 0 -7
-13 -24 -47 -61 -13 -13 -23 -31 -23 -39 0 -8 -9 -18 -20 -21 -11 -3 -20 -13
-20 -21 0 -9 -7 -22 -15 -30 -8 -9 -15 -24 -15 -34 0 -10 -9 -22 -20 -25 -11
-3 -20 -14 -20 -23 0 -10 -9 -24 -20 -32 -11 -8 -20 -22 -20 -32 0 -10 -4 -18
-10 -18 -5 0 -12 -11 -16 -25 -3 -14 -10 -25 -15 -25 -5 0 -9 -9 -9 -20 0 -11
-4 -20 -10 -20 -5 0 -10 -9 -10 -19 0 -11 -9 -23 -20 -26 -11 -3 -20 -15 -20
-26 0 -10 -4 -19 -9 -19 -5 0 -12 -15 -15 -33 -3 -18 -15 -39 -26 -47 -11 -8
-20 -22 -20 -32 0 -10 -4 -18 -10 -18 -5 0 -10 -9 -10 -20 0 -11 -4 -20 -10
-20 -5 0 -10 -6 -10 -14 0 -8 -4 -16 -9 -18 -5 -1 -13 -31 -17 -65 -7 -70 1
-78 41 -40 36 33 53 47 60 47 3 0 25 19 50 43 53 51 72 67 80 67 3 0 44 38 90
85 47 47 89 85 95 85 5 0 50 41 100 90 50 50 95 90 101 90 13 0 69 58 69 71 0
5 12 12 28 15 26 7 60 38 92 83 8 12 22 21 32 21 18 0 68 44 68 60 0 6 7 10
15 10 9 0 27 10 40 23 38 35 54 47 62 47 5 0 15 9 23 20 8 11 21 20 30 20 8 0
24 11 34 25 10 14 26 25 35 25 9 0 23 9 31 20 8 11 22 20 32 20 9 0 20 9 23
20 3 11 13 20 21 20 9 0 22 7 30 15 9 8 24 15 35 15 10 0 19 5 19 10 0 6 6 10
13 10 7 0 19 9 27 20 8 11 22 20 32 20 10 0 18 5 18 10 0 6 9 10 19 10 10 0
21 7 25 15 3 8 15 15 26 15 11 0 20 5 20 10 0 6 9 10 20 10 11 0 20 5 20 10 0
6 7 10 15 10 8 0 15 5 15 10 0 6 9 10 20 10 11 0 20 5 20 10 0 6 9 10 19 10
11 0 21 5 23 11 2 5 22 13 46 16 23 3 42 10 42 14 0 5 9 9 20 9 11 0 20 5 20
10 0 6 11 10 25 10 14 0 25 5 25 10 0 6 14 10 30 10 17 0 30 5 30 10 0 6 16
10 35 10 19 0 35 5 35 10 0 6 15 10 34 10 19 0 36 6 39 13 3 9 74 12 312 12
238 0 309 -3 313 -12 2 -7 15 -13 28 -13 13 0 24 -4 24 -10 0 -5 18 -10 40
-10 22 0 40 -4 40 -10 0 -5 7 -10 15 -10 8 0 15 -4 15 -10 0 -5 14 -10 30 -10
17 0 30 -4 30 -10 0 -5 9 -10 20 -10 11 0 20 -4 20 -9 0 -5 11 -12 25 -15 14
-4 25 -11 25 -16 0 -6 9 -10 20 -10 11 0 20 -4 20 -10 0 -5 6 -10 13 -10 7 0
19 -9 27 -20 8 -11 22 -20 32 -20 10 0 18 -4 18 -9 0 -5 9 -12 19 -16 11 -3
23 -15 26 -26 4 -10 13 -19 21 -19 18 0 134 -114 134 -132 0 -8 10 -20 21 -28
37 -26 69 -64 69 -82 0 -8 9 -20 20 -28 11 -8 20 -20 20 -27 0 -7 5 -13 10
-13 6 0 10 -9 10 -20 0 -11 4 -20 9 -20 5 0 12 -16 15 -35 4 -19 11 -35 16
-35 6 0 10 -9 10 -20 0 -11 5 -20 10 -20 6 0 10 -9 10 -20 0 -11 5 -20 10 -20
6 0 10 -11 10 -25 0 -14 5 -25 10 -25 6 0 10 -13 10 -30 0 -16 5 -30 10 -30 6
0 10 -11 10 -24 0 -13 4 -26 10 -28 5 -1 12 -51 16 -110 4 -60 11 -108 15
-108 5 0 9 -42 9 -94 0 -76 3 -95 16 -100 9 -3 100 -6 203 -6 l188 0 6 107 c4
58 7 128 7 155 0 26 5 48 10 48 6 0 10 20 10 45 0 25 5 45 10 45 6 0 10 11 10
25 0 14 5 25 10 25 6 0 10 14 10 30 0 17 5 30 10 30 6 0 10 14 10 30 0 17 4
30 9 30 5 0 12 20 15 45 4 25 11 45 17 45 5 0 9 7 9 15 0 8 5 15 10 15 6 0 10
9 10 20 0 11 5 20 10 20 6 0 10 7 10 16 0 9 8 24 19 33 10 9 21 26 25 39 4 12
12 22 17 22 5 0 9 7 9 16 0 17 36 54 52 54 4 0 8 7 8 15 0 18 19 40 114 131
25 25 46 49 46 54 0 6 9 10 20 10 10 0 30 11 44 25 14 14 29 25 33 25 5 0 15
9 23 20 8 11 22 20 32 20 10 0 18 5 18 10 0 6 9 10 20 10 11 0 23 7 26 15 4 9
19 15 35 15 16 0 29 5 29 10 0 6 9 10 20 10 11 0 20 5 20 10 0 6 11 10 25 10
14 0 25 5 25 10 0 6 14 10 30 10 17 0 30 5 30 10 0 6 15 10 34 10 19 0 36 6
38 13 4 9 78 12 328 12 250 0 324 -3 327 -12 3 -7 20 -13 39 -13 19 0 34 -4
34 -10 0 -5 14 -10 30 -10 17 0 30 -4 30 -10 0 -5 14 -10 30 -10 17 0 30 -4
30 -10 0 -5 11 -10 25 -10 14 0 25 -4 25 -10 0 -5 9 -10 20 -10 11 0 20 -4 20
-9 0 -5 20 -12 45 -15 25 -4 45 -11 45 -17 0 -5 9 -9 20 -9 11 0 20 -4 20 -10
0 -5 7 -10 15 -10 8 0 15 -4 15 -10 0 -5 8 -10 18 -10 10 0 24 -9 32 -20 8
-11 29 -23 47 -26 18 -3 33 -10 33 -15 0 -5 8 -9 18 -9 10 0 24 -9 32 -20 8
-11 19 -20 24 -20 5 0 16 -8 25 -18 9 -11 28 -22 44 -26 15 -3 27 -11 27 -16
0 -6 6 -10 13 -10 7 0 19 -9 27 -20 8 -11 21 -20 30 -20 9 0 22 -9 30 -20 8
-11 20 -20 27 -20 7 0 23 -11 37 -25 14 -14 30 -25 37 -25 13 0 49 -38 49 -52
0 -4 9 -8 20 -8 10 0 30 -11 44 -25 14 -14 28 -25 31 -25 3 0 21 -16 41 -35
19 -19 44 -35 54 -35 11 0 20 -4 20 -9 0 -14 77 -91 91 -91 6 0 35 -25 64 -55
29 -30 56 -55 60 -55 7 0 25 -15 70 -57 19 -18 37 -33 40 -33 12 0 125 -108
125 -120 0 -6 7 -10 15 -10 17 0 28 -8 81 -58 18 -18 34 -37 34 -42 0 -6 7
-10 15 -10 9 0 23 -6 31 -12 38 -32 64 -60 64 -68 0 -6 7 -10 15 -10 9 0 27
-11 41 -25 14 -14 30 -25 37 -25 7 0 19 -9 27 -20 15 -21 50 -28 50 -10 0 6
-4 10 -10 10 -5 0 -10 11 -10 25 0 14 -4 25 -10 25 -5 0 -10 9 -10 20 0 11 -4
20 -9 20 -5 0 -12 16 -15 35 -4 19 -11 35 -16 35 -6 0 -10 9 -10 20 0 11 -4
20 -10 20 -5 0 -10 9 -10 20 0 11 -4 20 -10 20 -5 0 -10 7 -10 15 0 8 -4 15
-10 15 -5 0 -10 9 -10 20 0 11 -4 20 -10 20 -5 0 -12 11 -16 25 -3 14 -10 25
-15 25 -5 0 -9 8 -9 18 0 10 -9 24 -20 32 -11 8 -20 22 -20 32 0 9 -9 19 -19
23 -13 4 -22 19 -26 44 -3 20 -15 44 -26 51 -10 8 -19 19 -19 25 0 6 -9 17
-20 25 -11 8 -20 20 -20 28 0 7 -11 24 -25 38 -14 14 -25 30 -25 37 0 7 -9 19
-20 27 -11 8 -20 21 -20 29 0 14 -37 51 -52 51 -4 0 -8 9 -8 20 0 10 -11 30
-25 44 -14 14 -25 28 -25 32 0 3 -13 18 -28 32 -16 15 -32 39 -36 55 -3 15
-11 27 -16 27 -6 0 -10 31 -10 70 0 39 4 70 9 70 5 0 12 25 16 55 3 30 11 55
16 55 5 0 9 9 9 20 0 11 5 20 10 20 6 0 10 14 10 30 0 17 5 30 10 30 6 0 10
11 10 25 0 14 5 25 10 25 6 0 10 14 10 30 0 17 4 30 9 30 5 0 13 25 16 55 4
30 11 55 16 55 5 0 9 11 9 25 0 14 5 25 10 25 6 0 10 16 10 35 0 19 5 35 10
35 6 0 10 18 10 40 0 22 5 40 10 40 6 0 10 16 10 35 0 19 4 35 9 35 5 0 13 45
16 100 4 55 11 100 16 100 5 0 9 38 9 85 0 50 4 85 10 85 6 0 10 52 10 135 0
83 -4 135 -10 135 -6 0 -10 32 -10 75 0 41 -4 75 -9 75 -5 0 -12 29 -16 65 -3
36 -11 65 -16 65 -5 0 -9 14 -9 30 0 17 -4 30 -10 30 -5 0 -20 11 -34 25 -23
23 -33 25 -111 25 -50 0 -85 -4 -85 -10 0 -5 -9 -10 -20 -10 -11 0 -20 -4 -20
-9 0 -5 -20 -12 -45 -15 -25 -4 -45 -11 -45 -17 0 -5 -9 -9 -20 -9 -11 0 -20
-4 -20 -10 0 -5 -6 -10 -13 -10 -7 0 -19 -9 -27 -20 -8 -11 -21 -20 -29 -20
-7 0 -21 -8 -30 -19 -9 -10 -26 -21 -38 -25 -13 -4 -23 -12 -23 -17 0 -5 -8
-9 -18 -9 -10 0 -24 -9 -32 -21 -30 -43 -48 -59 -63 -59 -15 0 -37 -20 -105
-95 -12 -14 -31 -25 -40 -25 -10 0 -24 -10 -32 -21 -8 -12 -30 -36 -49 -54
-18 -18 -42 -42 -53 -53 -11 -11 -36 -35 -54 -53 -19 -19 -43 -44 -55 -55 -12
-12 -37 -38 -56 -58 -18 -20 -43 -36 -53 -36 -11 0 -20 -4 -20 -8 0 -15 -37
-52 -51 -52 -8 0 -21 -9 -29 -20 -15 -21 -80 -29 -80 -10 0 6 -13 10 -30 10
-16 0 -30 5 -30 10 0 6 -7 10 -15 10 -8 0 -15 5 -15 10 0 6 -13 10 -30 10 -16
0 -30 5 -30 10 0 6 -9 10 -20 10 -11 0 -20 4 -20 10 0 5 -16 12 -35 16 -19 3
-35 10 -35 15 0 5 -11 9 -25 9 -14 0 -25 5 -25 10 0 6 -9 10 -20 10 -11 0 -20
5 -20 10 0 6 -9 10 -20 10 -11 0 -20 5 -20 10 0 6 -7 10 -15 10 -8 0 -15 4
-15 10 0 5 -22 12 -50 16 -27 4 -50 10 -50 15 0 5 -7 9 -15 9 -8 0 -15 5 -15
10 0 6 -13 10 -30 10 -16 0 -30 5 -30 10 0 6 -5 10 -10 10 -6 0 -22 11 -35 25
-21 20 -25 34 -25 80 0 30 5 55 10 55 6 0 10 9 10 20 0 11 -4 20 -10 20 -5 0
-10 7 -10 16 0 23 -38 54 -67 54 -12 0 -23 5 -23 10 0 6 -18 10 -40 10 -22 0
-40 5 -40 10 0 6 -16 10 -35 10 -19 0 -35 5 -35 10 0 6 -16 10 -35 10 -19 0
-35 5 -35 10 0 6 -22 10 -50 10 -27 0 -50 4 -50 9 0 5 -45 12 -100 16 -55 3
-100 11 -100 16 0 5 -29 9 -65 9 -37 0 -65 4 -65 10 0 6 -33 10 -80 10 -47 0
-80 4 -80 10 0 6 -57 10 -150 10 -93 0 -150 4 -150 10 0 6 -82 10 -225 10
-143 0 -225 -4 -225 -10 0 -6 -57 -10 -150 -10 -93 0 -150 -4 -150 -10 0 -6
-33 -10 -80 -10 -47 0 -80 -4 -80 -10 0 -6 -28 -10 -65 -10 -36 0 -65 -4 -65
-9 0 -5 -45 -12 -100 -16 -55 -3 -100 -11 -100 -16 0 -5 -18 -9 -40 -9 -22 0
-40 -4 -40 -10 0 -5 -16 -10 -35 -10 -19 0 -35 -4 -35 -10 0 -5 -13 -10 -30
-10 -16 0 -30 -4 -30 -10 0 -5 -16 -10 -35 -10 -19 0 -35 -4 -35 -9 0 -4 -18
-11 -39 -14 -48 -6 -91 -45 -91 -82 0 -14 5 -25 10 -25 6 0 10 -16 10 -35 0
-19 -4 -35 -10 -35 -5 0 -10 -9 -10 -19 0 -11 -9 -22 -19 -26 -11 -3 -23 -15
-26 -26 -4 -10 -15 -19 -26 -19 -10 0 -19 -4 -19 -10 0 -5 -9 -10 -20 -10 -11
0 -20 -4 -20 -10 0 -5 -7 -10 -15 -10 -8 0 -15 -4 -15 -9 0 -5 -18 -12 -40
-16 -22 -4 -40 -11 -40 -16 0 -5 -7 -9 -15 -9 -8 0 -15 -4 -15 -10 0 -5 -9
-10 -20 -10 -11 0 -20 -4 -20 -10 0 -5 -13 -10 -30 -10 -16 0 -30 -4 -30 -10
0 -5 -7 -10 -15 -10 -8 0 -15 -4 -15 -10 0 -5 -22 -12 -50 -16 -27 -4 -50 -10
-50 -15 0 -5 -7 -9 -15 -9 -8 0 -15 -4 -15 -10 0 -5 -9 -10 -20 -10 -11 0 -20
-4 -20 -10 0 -5 -11 -10 -25 -10 -14 0 -25 -4 -25 -10 0 -5 -13 -10 -30 -10
-16 0 -30 -4 -30 -10 0 -5 -11 -10 -25 -10 -14 0 -25 5 -25 10 0 6 -7 10 -16
10 -8 0 -39 25 -69 55 -29 30 -58 55 -65 55 -7 0 -25 15 -41 33 -16 17 -33 36
-38 41 -5 4 -29 28 -54 53 -25 25 -50 50 -56 57 -49 48 -101 96 -106 96 -8 0
-27 16 -80 68 -25 23 -47 42 -50 42 -4 0 -13 6 -20 13 -35 31 -45 37 -60 37
-8 0 -15 4 -15 8 0 16 -37 52 -54 52 -9 0 -16 4 -16 9 0 5 -10 13 -22 17 -13
4 -30 15 -39 25 -9 11 -24 19 -33 19 -9 0 -16 5 -16 10 0 6 -9 10 -20 10 -11
0 -20 5 -20 10 0 6 -7 10 -15 10 -8 0 -15 5 -15 10 0 6 -9 10 -20 10 -11 0
-20 4 -20 9 0 6 -20 13 -45 17 -25 3 -45 10 -45 15 0 5 -25 9 -55 9 -30 0 -55
5 -55 10 0 6 -4 10 -10 10 -5 0 -10 -4 -10 -10z"/>
<path d="M3670 7500 c0 -6 -27 -10 -60 -10 -33 0 -60 -4 -60 -10 0 -5 -22 -10
-50 -10 -27 0 -50 -4 -50 -10 0 -5 -16 -10 -35 -10 -19 0 -35 -4 -35 -10 0 -5
-13 -10 -30 -10 -16 0 -30 -4 -30 -9 0 -5 -20 -12 -45 -15 -25 -4 -45 -11 -45
-17 0 -5 -11 -9 -25 -9 -14 0 -25 -4 -25 -10 0 -5 -9 -10 -20 -10 -11 0 -20
-4 -20 -10 0 -5 -9 -10 -20 -10 -11 0 -20 -4 -20 -10 0 -5 -9 -10 -21 -10 -11
0 -27 -7 -35 -15 -9 -8 -24 -15 -35 -15 -10 0 -19 -4 -19 -10 0 -5 -7 -10 -15
-10 -8 0 -15 -4 -15 -10 0 -5 -8 -10 -18 -10 -10 0 -24 -9 -32 -20 -8 -11 -20
-20 -27 -20 -7 0 -13 -4 -13 -10 0 -5 -12 -13 -27 -16 -16 -4 -35 -15 -44 -26
-9 -10 -20 -18 -24 -18 -4 0 -20 -13 -35 -30 -15 -16 -35 -30 -44 -30 -8 0
-26 -11 -40 -25 -14 -14 -28 -25 -32 -25 -3 0 -19 -13 -34 -30 -15 -16 -34
-30 -42 -30 -7 0 -27 -16 -43 -35 -17 -19 -36 -35 -43 -35 -7 0 -28 -16 -46
-35 -19 -19 -39 -35 -46 -35 -6 0 -25 -13 -40 -30 -15 -16 -31 -30 -34 -30 -4
0 -18 -10 -31 -22 -62 -57 -75 -68 -80 -68 -3 0 -21 -16 -41 -35 -19 -19 -39
-35 -45 -35 -6 0 -28 -18 -49 -40 -21 -22 -43 -40 -49 -40 -6 0 -36 -25 -66
-55 -30 -30 -59 -55 -65 -55 -5 0 -30 -20 -54 -45 -25 -25 -52 -45 -60 -45 -8
0 -18 -9 -21 -20 -3 -11 -10 -20 -15 -20 -5 0 -25 -16 -44 -35 -20 -19 -38
-35 -42 -35 -4 0 -14 -8 -23 -18 -9 -11 -28 -22 -43 -26 -16 -3 -28 -11 -28
-16 0 -6 -7 -10 -15 -10 -8 0 -15 -4 -15 -10 0 -5 -9 -10 -20 -10 -11 0 -20
-4 -20 -10 0 -5 -8 -10 -18 -10 -10 0 -24 -9 -32 -20 -8 -11 -29 -23 -47 -26
-18 -3 -33 -10 -33 -15 0 -5 -9 -9 -20 -9 -11 0 -20 -4 -20 -10 0 -5 -7 -10
-15 -10 -8 0 -15 -4 -15 -10 0 -5 -9 -10 -20 -10 -11 0 -20 -4 -20 -10 0 -5
-9 -10 -20 -10 -11 0 -20 -4 -20 -10 0 -5 -7 -10 -15 -10 -8 0 -15 -4 -15 -9
0 -5 -18 -12 -40 -16 -22 -4 -40 -11 -40 -16 0 -5 -11 -9 -25 -9 -14 0 -25 -4
-25 -10 0 -5 -13 -10 -30 -10 -16 0 -30 -4 -30 -10 0 -5 -9 -10 -21 -10 -11 0
-28 -7 -36 -16 -14 -13 -14 -17 -2 -25 8 -5 17 -9 22 -9 4 0 7 -9 7 -20 0 -11
6 -20 13 -20 7 0 19 -9 27 -20 8 -11 22 -20 32 -20 10 0 18 -4 18 -10 0 -5 16
-12 35 -16 19 -3 35 -10 35 -15 0 -5 14 -9 30 -9 17 0 30 -4 30 -10 0 -5 5
-10 11 -10 16 0 39 -26 39 -45 0 -17 -23 -45 -37 -45 -5 0 -15 -9 -23 -20 -8
-11 -22 -20 -32 -20 -10 0 -18 -4 -18 -10 0 -5 -9 -10 -19 -10 -11 0 -21 -5
-23 -11 -2 -5 -22 -13 -46 -16 -23 -3 -42 -10 -42 -14 0 -5 -7 -9 -15 -9 -8 0
-15 -4 -15 -10 0 -5 -13 -10 -30 -10 -16 0 -30 -4 -30 -10 0 -5 -11 -10 -25
-10 -14 0 -25 -4 -25 -10 0 -5 -13 -10 -30 -10 -16 0 -30 -4 -30 -9 0 -5 -36
-13 -80 -17 -44 -3 -80 -11 -80 -15 0 -5 -18 -9 -40 -9 -22 0 -40 -4 -40 -10
0 -5 -16 -10 -35 -10 -40 0 -44 -9 -15 -30 11 -8 20 -20 20 -27 0 -7 11 -23
25 -37 14 -14 25 -30 25 -36 0 -13 187 -200 201 -200 6 0 27 -17 48 -39 20
-21 47 -41 59 -45 12 -4 22 -12 22 -17 0 -5 7 -9 16 -9 17 0 54 -36 54 -52 0
-4 7 -8 16 -8 8 0 22 -7 30 -15 9 -8 24 -15 35 -15 10 0 19 -4 19 -10 0 -6
-32 -10 -75 -10 -43 0 -75 -4 -75 -10 0 -5 -25 -10 -55 -10 -30 0 -55 -4 -55
-10 0 -5 -9 -10 -20 -10 -13 0 -20 -7 -20 -20 0 -11 5 -20 10 -20 6 0 10 -6
10 -13 0 -7 9 -19 20 -27 11 -8 20 -22 20 -32 0 -10 4 -18 9 -18 5 0 12 -11
15 -25 4 -14 11 -25 16 -25 6 0 10 -8 10 -18 0 -10 9 -24 20 -32 11 -8 20 -18
20 -23 0 -4 11 -19 25 -33 14 -14 25 -32 25 -40 0 -9 14 -29 30 -44 17 -15 30
-31 30 -34 0 -4 10 -18 23 -31 56 -62 67 -75 67 -80 0 -13 271 -275 284 -275
8 0 18 -9 21 -20 3 -11 10 -20 15 -20 5 0 25 -16 44 -35 20 -19 38 -35 41 -35
3 0 17 -11 31 -25 14 -14 32 -25 41 -25 16 0 53 -36 53 -52 0 -4 8 -8 18 -8
10 0 24 -9 32 -20 8 -11 22 -20 31 -20 9 0 19 -7 23 -15 3 -8 14 -15 23 -15
10 0 25 -9 33 -20 8 -11 22 -20 32 -20 9 0 20 -9 23 -20 3 -11 15 -20 26 -20
10 0 19 -4 19 -10 0 -5 9 -10 19 -10 11 0 26 -7 35 -15 8 -8 19 -15 25 -15 6
0 11 -4 11 -10 0 -5 9 -10 20 -10 11 0 20 -4 20 -10 0 -5 9 -10 20 -10 11 0
20 -4 20 -10 0 -5 7 -10 15 -10 8 0 15 -4 15 -9 0 -5 18 -12 40 -16 22 -4 40
-11 40 -16 0 -5 7 -9 15 -9 8 0 15 -4 15 -10 0 -5 9 -10 20 -10 11 0 20 -4 20
-10 0 -5 9 -10 20 -10 11 0 20 -4 20 -10 0 -5 11 -10 25 -10 14 0 25 -4 25 -9
0 -5 18 -12 40 -16 22 -4 40 -11 40 -16 0 -5 7 -9 15 -9 8 0 15 -4 15 -10 0
-5 14 -10 30 -10 17 0 30 -4 30 -10 0 -5 11 -10 25 -10 14 0 25 -4 25 -10 0
-5 9 -10 20 -10 11 0 20 -4 20 -9 0 -5 25 -13 55 -16 30 -4 55 -11 55 -16 0
-5 14 -9 30 -9 17 0 30 -4 30 -10 0 -5 11 -10 25 -10 14 0 25 -4 25 -10 0 -5
14 -10 30 -10 17 0 30 -4 30 -10 0 -5 15 -10 34 -10 19 0 36 -4 38 -10 2 -5
31 -13 66 -16 34 -4 62 -11 62 -15 0 -5 20 -9 45 -9 25 0 45 -4 45 -10 0 -5
16 -10 35 -10 19 0 35 -4 35 -10 0 -5 20 -10 45 -10 25 0 45 -4 45 -10 0 -6
27 -10 60 -10 33 0 60 -4 60 -9 0 -5 45 -13 100 -16 55 -4 100 -11 100 -16 0
-5 32 -9 70 -9 40 0 70 -4 70 -10 0 -5 18 -10 40 -10 33 0 40 3 40 19 0 15
-10 21 -40 26 -22 4 -40 11 -40 16 0 5 -11 9 -25 9 -14 0 -25 5 -25 10 0 6 -9
10 -20 10 -11 0 -20 5 -20 10 0 6 -11 10 -25 10 -14 0 -25 5 -25 10 0 6 -13
10 -29 10 -16 0 -31 5 -33 11 -2 5 -22 13 -46 16 -23 3 -42 10 -42 14 0 5 -11
9 -25 9 -14 0 -25 5 -25 10 0 6 -9 10 -20 10 -11 0 -20 5 -20 10 0 6 -13 10
-30 10 -16 0 -30 5 -30 10 0 6 -7 10 -15 10 -8 0 -15 4 -15 10 0 5 -22 12 -50
16 -27 4 -50 10 -50 15 0 5 -7 9 -15 9 -8 0 -15 5 -15 10 0 6 -9 10 -20 10
-11 0 -20 5 -20 10 0 6 -11 10 -25 10 -14 0 -25 5 -25 10 0 6 -9 10 -20 10
-11 0 -20 4 -20 9 0 5 -16 12 -35 15 -19 4 -35 11 -35 16 0 6 -9 10 -20 10
-11 0 -20 5 -20 10 0 6 -9 10 -20 10 -11 0 -20 5 -20 10 0 6 -7 10 -15 10 -8
0 -15 5 -15 10 0 6 -9 10 -20 10 -11 0 -20 4 -20 9 0 5 -15 12 -33 15 -18 3
-39 15 -47 26 -8 11 -22 20 -32 20 -10 0 -18 5 -18 10 0 6 -9 10 -20 10 -11 0
-20 5 -20 10 0 6 -7 10 -15 10 -8 0 -15 4 -15 10 0 5 -12 13 -27 16 -16 4 -35
15 -44 26 -9 10 -20 18 -25 18 -5 0 -16 9 -24 20 -8 11 -22 20 -32 20 -10 0
-18 4 -18 9 0 5 -10 13 -22 17 -13 4 -35 20 -49 35 -15 16 -33 29 -39 29 -14
0 -50 38 -50 52 0 4 -9 8 -20 8 -10 0 -35 16 -53 36 -19 20 -44 45 -55 56 -11
11 -35 36 -55 55 -19 20 -44 44 -55 55 -11 11 -35 36 -53 54 -51 50 -79 83
-79 90 0 3 -13 19 -30 34 -16 15 -30 33 -30 39 0 7 -11 22 -25 35 -14 13 -25
30 -25 37 0 8 -9 21 -20 29 -11 8 -20 20 -20 27 0 7 -4 13 -10 13 -5 0 -10 9
-10 20 0 11 -4 20 -10 20 -5 0 -10 9 -10 19 0 11 -7 26 -15 35 -8 8 -15 19
-15 25 0 6 -4 11 -10 11 -5 0 -10 9 -10 20 0 11 -4 20 -10 20 -5 0 -10 9 -10
20 0 11 -4 20 -10 20 -5 0 -10 7 -10 15 0 8 -4 15 -9 15 -5 0 -12 18 -16 40
-4 22 -11 40 -16 40 -5 0 -9 11 -9 25 0 14 -4 25 -10 25 -5 0 -10 18 -10 40 0
30 7 47 25 65 13 14 29 25 35 25 5 0 10 5 10 10 0 6 9 10 20 10 11 0 20 5 20
10 0 6 9 10 19 10 10 0 21 7 25 15 3 8 13 15 21 15 9 0 34 19 56 43 21 23 43
45 47 49 4 4 42 41 85 83 42 41 77 80 77 85 0 6 16 26 35 46 19 19 35 39 35
45 0 6 14 24 30 39 17 15 30 35 30 43 0 9 9 19 20 22 11 3 20 15 20 25 0 11
11 30 25 44 14 14 25 28 25 32 0 3 13 18 28 32 16 15 32 39 36 55 3 15 11 27
16 27 6 0 10 5 10 11 0 6 18 28 40 49 22 21 40 43 40 49 0 6 20 31 45 55 25
25 45 48 45 51 0 8 19 30 70 81 25 25 49 49 54 53 53 54 120 121 127 127 5 5
22 24 38 42 16 17 35 32 41 32 7 0 27 16 46 35 18 19 39 35 46 35 8 0 20 9 28
20 8 11 18 20 23 20 7 0 20 9 52 38 7 6 21 12 29 12 9 0 16 5 16 10 0 6 6 10
13 10 7 0 19 9 27 20 8 11 22 20 32 20 10 0 18 4 18 9 0 5 16 12 35 15 19 4
35 11 35 16 0 6 9 10 20 10 11 0 20 5 20 10 0 6 9 10 20 10 11 0 20 5 20 10 0
6 11 10 25 10 14 0 25 5 25 10 0 6 13 10 29 10 16 0 31 6 34 13 3 9 62 12 252
12 190 0 249 -3 253 -12 2 -7 19 -13 38 -13 19 0 34 -4 34 -10 0 -5 14 -10 30
-10 17 0 30 -4 30 -10 0 -5 9 -10 20 -10 11 0 20 -4 20 -10 0 -5 7 -10 15 -10
8 0 15 -4 15 -10 0 -5 13 -10 29 -10 16 0 36 -7 45 -15 8 -8 19 -15 25 -15 6
0 11 -4 11 -10 0 -5 9 -10 20 -10 11 0 20 -4 20 -10 0 -5 8 -10 18 -10 10 0
24 -9 32 -20 8 -11 20 -20 27 -20 7 0 28 -16 47 -35 20 -19 38 -35 41 -35 9 0
81 -68 141 -132 12 -13 31 -30 43 -38 11 -8 21 -20 21 -28 0 -7 6 -20 13 -27
28 -32 37 -45 37 -52 0 -5 9 -15 20 -23 11 -8 20 -22 20 -32 0 -10 5 -18 10
-18 6 0 10 -9 10 -20 0 -11 4 -20 9 -20 5 0 13 -14 16 -32 4 -17 14 -38 21
-46 12 -11 16 -11 29 2 8 8 15 26 15 40 0 14 5 26 10 26 6 0 10 98 10 275 0
177 -4 275 -10 275 -6 0 -10 43 -10 110 0 67 -4 110 -10 110 -5 0 -10 25 -10
55 0 30 -4 55 -10 55 -5 0 -10 16 -10 35 0 19 -4 35 -9 35 -4 0 -11 19 -14 42
-3 24 -11 44 -16 46 -6 2 -11 17 -11 33 0 16 -4 29 -10 29 -5 0 -10 9 -10 19
0 11 -9 23 -20 26 -11 3 -20 15 -20 26 0 10 -4 19 -10 19 -5 0 -10 9 -10 20 0
10 -7 25 -16 32 -8 7 -35 33 -59 57 -23 24 -48 48 -54 55 -59 58 -102 96 -111
96 -5 0 -10 4 -10 10 0 5 -12 13 -27 16 -16 4 -35 15 -44 26 -9 10 -21 18 -28
18 -6 0 -11 5 -11 10 0 6 -9 10 -20 10 -11 0 -20 5 -20 10 0 6 -9 10 -19 10
-11 0 -21 5 -23 11 -2 5 -22 13 -46 16 -23 3 -42 10 -42 14 0 5 -9 9 -20 9
-11 0 -20 5 -20 10 0 6 -11 10 -25 10 -14 0 -25 5 -25 10 0 6 -16 10 -35 10
-19 0 -35 5 -35 10 0 6 -25 10 -55 10 -30 0 -55 5 -55 10 0 6 -42 10 -105 10
-63 0 -105 -4 -105 -10z"/>
<path d="M6610 7500 c0 -5 -20 -10 -45 -10 -25 0 -45 -4 -45 -10 0 -5 -16 -10
-35 -10 -19 0 -35 -4 -35 -10 0 -5 -18 -10 -40 -10 -22 0 -40 -4 -40 -10 0 -5
-11 -10 -25 -10 -14 0 -25 -4 -25 -9 0 -5 -16 -12 -35 -15 -19 -4 -35 -11 -35
-16 0 -6 -9 -10 -20 -10 -11 0 -20 -4 -20 -10 0 -5 -9 -10 -20 -10 -11 0 -20
-4 -20 -10 0 -5 -6 -10 -13 -10 -7 0 -19 -9 -27 -20 -8 -11 -22 -20 -32 -20
-9 0 -28 -11 -42 -25 -14 -14 -28 -25 -31 -25 -3 0 -21 -15 -40 -32 -19 -18
-40 -38 -47 -45 -24 -22 -38 -42 -38 -54 0 -13 -38 -49 -52 -49 -4 0 -8 -7 -8
-16 0 -8 -7 -22 -15 -30 -8 -9 -15 -24 -15 -35 0 -10 -4 -19 -10 -19 -5 0 -10
-7 -10 -15 0 -8 -4 -15 -10 -15 -5 0 -10 -9 -10 -20 0 -11 -4 -20 -10 -20 -5
0 -10 -9 -10 -20 0 -11 -4 -20 -10 -20 -5 0 -10 -7 -10 -15 0 -8 -4 -15 -10
-15 -5 0 -10 -9 -10 -19 0 -11 -4 -21 -10 -23 -5 -1 -12 -40 -16 -85 -4 -46
-11 -83 -15 -83 -5 0 -9 -61 -9 -135 0 -83 -4 -135 -10 -135 -6 0 -10 -95 -10
-265 0 -170 4 -265 10 -265 6 0 10 -22 10 -50 0 -51 13 -67 25 -30 3 11 11 20
16 20 5 0 9 9 9 20 0 11 5 20 10 20 6 0 10 6 10 13 0 7 9 19 20 27 11 8 20 22
20 32 0 10 5 18 10 18 6 0 10 9 10 20 0 11 5 20 10 20 6 0 10 7 10 15 0 8 11
25 25 39 14 14 25 31 25 38 0 8 10 20 21 28 12 8 27 21 33 28 39 46 121 122
131 122 4 0 23 17 44 39 20 21 47 41 59 45 12 4 22 12 22 17 0 5 8 9 18 9 10
0 24 9 32 20 8 11 20 20 27 20 7 0 13 5 13 10 0 6 9 10 20 10 11 0 20 4 20 9
0 5 16 12 35 15 19 4 35 11 35 16 0 6 9 10 20 10 11 0 20 5 20 10 0 6 9 10 20
10 11 0 20 5 20 10 0 6 16 10 35 10 19 0 35 5 35 10 0 6 18 10 39 10 23 0 41
5 44 13 3 9 55 12 217 12 162 0 214 -3 218 -12 2 -7 19 -13 38 -13 19 0 34 -4
34 -10 0 -5 11 -10 25 -10 14 0 25 -4 25 -10 0 -5 14 -10 30 -10 17 0 30 -4
30 -10 0 -5 9 -10 20 -10 11 0 20 -4 20 -10 0 -5 16 -12 35 -16 19 -3 35 -10
35 -15 0 -5 9 -9 20 -9 11 0 20 -4 20 -10 0 -5 7 -10 15 -10 8 0 15 -4 15 -10
0 -5 8 -10 18 -10 10 0 24 -9 32 -20 8 -11 22 -20 31 -20 9 0 25 -11 35 -25
10 -14 25 -25 32 -25 8 0 27 -13 42 -30 15 -16 33 -30 39 -30 6 0 31 -20 55
-45 25 -25 48 -45 51 -45 11 0 45 -32 131 -122 17 -18 41 -40 53 -48 11 -8 21
-22 21 -32 0 -9 10 -26 23 -38 87 -80 107 -100 107 -111 0 -6 20 -31 45 -55
25 -23 45 -47 45 -53 0 -6 16 -27 35 -45 19 -19 35 -40 35 -46 0 -14 38 -50
52 -50 4 0 8 -9 8 -19 0 -11 7 -26 15 -35 8 -8 15 -22 15 -30 0 -9 4 -16 8
-16 16 0 52 -37 52 -54 0 -9 4 -16 9 -16 5 0 13 -10 17 -22 3 -12 28 -43 55
-69 27 -26 49 -53 49 -59 0 -17 257 -270 275 -270 8 0 15 -4 15 -10 0 -5 14
-10 30 -10 17 0 30 -4 30 -10 0 -5 5 -10 10 -10 19 0 60 -48 60 -70 0 -11 -4
-20 -10 -20 -5 0 -10 -13 -10 -30 0 -16 -4 -30 -10 -30 -5 0 -10 -7 -10 -15 0
-8 -4 -15 -9 -15 -4 0 -11 -19 -14 -42 -3 -24 -11 -44 -16 -46 -6 -2 -11 -12
-11 -23 0 -10 -4 -19 -10 -19 -5 0 -10 -9 -10 -20 0 -11 -4 -20 -10 -20 -5 0
-10 -7 -10 -15 0 -8 -4 -15 -10 -15 -5 0 -10 -7 -10 -16 0 -9 -8 -24 -19 -33
-10 -9 -21 -30 -25 -47 -4 -16 -16 -36 -26 -44 -11 -8 -20 -21 -20 -30 0 -9
-9 -22 -20 -30 -11 -8 -20 -20 -20 -27 0 -7 -4 -13 -10 -13 -5 0 -13 -12 -16
-27 -7 -27 -57 -83 -75 -83 -5 0 -9 -7 -9 -15 0 -17 -11 -33 -48 -68 -12 -12
-37 -37 -56 -56 -18 -18 -43 -42 -54 -53 -11 -11 -35 -35 -53 -53 -19 -18 -41
-42 -49 -54 -8 -11 -22 -21 -32 -21 -18 0 -68 -44 -68 -60 0 -6 -7 -10 -16
-10 -9 0 -28 -13 -43 -29 -14 -15 -36 -31 -49 -35 -12 -4 -22 -12 -22 -17 0
-5 -8 -9 -18 -9 -10 0 -24 -9 -32 -20 -8 -11 -22 -20 -32 -20 -9 0 -19 -9 -23
-19 -4 -13 -19 -22 -44 -26 -20 -3 -44 -15 -51 -26 -8 -10 -20 -19 -27 -19 -7
0 -13 -4 -13 -10 0 -5 -9 -10 -20 -10 -11 0 -20 -4 -20 -10 0 -5 -9 -10 -19
-10 -10 0 -21 -7 -25 -15 -3 -8 -15 -15 -26 -15 -11 0 -20 -4 -20 -10 0 -5 -9
-10 -20 -10 -11 0 -20 -4 -20 -10 0 -5 -7 -10 -15 -10 -8 0 -15 -4 -15 -10 0
-5 -9 -10 -20 -10 -11 0 -20 -4 -20 -10 0 -5 -9 -10 -20 -10 -11 0 -20 -4 -20
-10 0 -5 -16 -12 -35 -16 -19 -3 -35 -10 -35 -15 0 -5 -9 -9 -20 -9 -11 0 -20
-4 -20 -10 0 -5 -11 -10 -25 -10 -14 0 -25 -4 -25 -10 0 -5 -9 -10 -20 -10
-11 0 -20 -4 -20 -10 0 -5 -9 -10 -19 -10 -11 0 -21 -5 -23 -11 -2 -5 -22 -13
-46 -16 -23 -3 -42 -10 -42 -14 0 -5 -9 -9 -20 -9 -11 0 -20 -4 -20 -10 0 -5
-11 -10 -25 -10 -14 0 -25 -4 -25 -10 0 -5 -9 -10 -20 -10 -11 0 -20 -4 -20
-10 0 -5 -11 -10 -25 -10 -14 0 -25 -4 -25 -9 0 -4 -19 -11 -42 -14 -24 -3
-44 -11 -46 -16 -2 -6 -17 -11 -33 -11 -16 0 -29 -4 -29 -10 0 -5 -11 -10 -25
-10 -14 0 -25 -4 -25 -10 0 -5 -13 -10 -30 -10 -16 0 -30 -4 -30 -10 0 -5 -9
-10 -20 -10 -11 0 -20 -4 -20 -9 0 -5 -25 -13 -55 -16 -30 -4 -55 -11 -55 -16
0 -5 -7 -9 -15 -9 -8 0 -15 -4 -15 -10 0 -6 28 -10 65 -10 37 0 65 4 65 10 0
6 37 10 90 10 50 0 90 4 90 9 0 5 54 12 120 16 66 4 120 11 120 16 0 5 20 9
45 9 25 0 45 5 45 10 0 6 20 10 45 10 25 0 45 5 45 10 0 6 18 10 40 10 22 0
40 5 40 10 0 6 11 10 25 10 14 0 25 4 25 9 0 5 29 12 65 16 36 3 65 11 65 16
0 5 11 9 25 9 14 0 25 5 25 10 0 6 14 10 30 10 17 0 30 5 30 10 0 6 11 10 25
10 14 0 25 5 25 10 0 6 14 10 30 10 17 0 30 4 30 9 0 5 20 12 45 15 25 4 45
11 45 17 0 5 14 9 30 9 17 0 30 5 30 10 0 6 11 10 25 10 14 0 25 5 25 10 0 6
9 10 20 10 11 0 20 5 20 10 0 6 11 10 25 10 14 0 25 4 25 9 0 5 18 12 40 16
22 4 40 11 40 16 0 5 11 9 25 9 14 0 25 5 25 10 0 6 9 10 20 10 11 0 20 5 20
10 0 6 9 10 20 10 11 0 20 5 20 10 0 6 7 10 15 10 8 0 15 4 15 9 0 5 18 12 40
16 22 4 40 11 40 16 0 5 7 9 15 9 8 0 15 5 15 10 0 6 9 10 20 10 11 0 20 5 20
10 0 6 9 10 19 10 11 0 22 9 26 19 4 13 19 22 45 26 22 4 40 11 40 16 0 5 6 9
13 9 7 0 19 9 27 20 8 11 21 20 29 20 7 0 21 8 30 19 9 10 26 21 39 25 12 4
22 12 22 17 0 5 8 9 18 9 10 0 24 9 32 20 8 11 22 20 32 20 10 0 18 4 18 8 0
16 37 52 53 52 9 0 27 11 39 25 70 77 91 95 108 95 11 0 20 4 20 10 0 5 21 29
46 54 25 24 51 48 56 54 6 5 30 30 55 55 25 25 50 49 55 55 6 5 30 29 53 53
24 24 50 49 57 56 25 23 38 42 38 55 0 8 10 20 21 28 40 27 89 83 89 101 0 13
38 49 52 49 4 0 8 8 8 18 0 10 9 24 20 32 11 8 20 23 20 33 0 9 7 20 15 23 8
4 15 15 15 25 0 10 5 19 10 19 6 0 10 9 10 20 0 11 5 20 10 20 6 0 10 7 10 15
0 8 5 15 10 15 6 0 10 9 10 20 0 11 5 20 10 20 6 0 10 5 10 10 0 6 -57 10
-150 10 -82 0 -150 3 -150 6 0 10 42 44 54 44 7 0 18 9 26 20 8 11 20 20 28
20 7 0 42 29 77 65 36 36 69 65 75 65 8 0 233 221 276 272 6 7 21 20 33 28 11
8 21 22 21 32 0 14 -8 18 -35 18 -19 0 -35 5 -35 10 0 6 -22 10 -50 10 -27 0
-50 4 -50 9 0 4 -36 12 -80 15 -44 4 -80 12 -80 17 0 5 -13 9 -30 9 -16 0 -30
5 -30 10 0 6 -11 10 -25 10 -14 0 -25 5 -25 10 0 6 -9 10 -20 10 -11 0 -20 5
-20 10 0 6 -11 10 -25 10 -14 0 -25 4 -25 9 0 5 -18 12 -40 16 -22 4 -40 11
-40 16 0 5 -7 9 -15 9 -8 0 -15 5 -15 10 0 6 -8 10 -18 10 -10 0 -24 9 -32 20
-8 11 -22 20 -31 20 -15 0 -29 19 -29 39 0 14 37 51 51 51 8 0 21 9 29 20 8
11 24 20 36 20 13 0 29 7 38 15 8 8 22 15 30 15 9 0 16 5 16 10 0 6 7 10 15
10 8 0 15 5 15 10 0 6 7 10 15 10 18 0 65 43 65 60 0 5 -9 10 -20 10 -11 0
-20 5 -20 10 0 6 -9 10 -20 10 -11 0 -20 5 -20 10 0 6 -7 10 -15 10 -8 0 -15
5 -15 10 0 6 -13 10 -29 10 -16 0 -31 5 -33 11 -2 5 -22 13 -46 16 -23 3 -42
10 -42 14 0 5 -9 9 -20 9 -11 0 -20 5 -20 10 0 6 -7 10 -15 10 -8 0 -15 5 -15
10 0 6 -9 10 -20 10 -11 0 -20 5 -20 10 0 6 -9 10 -20 10 -11 0 -20 5 -20 10
0 6 -7 10 -15 10 -8 0 -15 5 -15 10 0 6 -9 10 -19 10 -11 0 -26 7 -35 15 -8 8
-19 15 -25 15 -6 0 -11 5 -11 10 0 6 -8 10 -18 10 -10 0 -24 9 -32 20 -8 11
-22 20 -31 20 -9 0 -19 7 -23 15 -3 8 -13 15 -22 15 -9 0 -29 14 -44 30 -15
17 -31 30 -34 30 -4 0 -18 11 -32 25 -14 14 -32 25 -40 25 -9 0 -29 14 -44 30
-15 17 -31 30 -34 30 -4 0 -18 10 -31 23 -36 33 -53 47 -60 47 -3 0 -26 20
-51 45 -24 25 -49 45 -54 45 -6 0 -35 25 -65 55 -31 30 -60 55 -66 55 -6 0
-35 25 -64 55 -29 30 -58 55 -64 55 -7 0 -30 18 -51 40 -21 22 -41 40 -45 40
-3 0 -17 10 -30 23 -36 33 -54 47 -60 47 -4 0 -23 17 -43 38 -21 21 -49 42
-64 45 -15 4 -30 16 -33 27 -3 11 -14 20 -23 20 -10 0 -24 9 -32 20 -8 11 -22
20 -31 20 -9 0 -19 7 -23 15 -3 8 -13 15 -22 15 -9 0 -29 14 -44 30 -15 17
-32 30 -37 30 -5 0 -15 9 -23 19 -7 11 -31 23 -51 26 -25 4 -40 13 -44 26 -4
10 -15 19 -26 19 -10 0 -19 5 -19 10 0 6 -9 10 -20 10 -11 0 -20 5 -20 10 0 6
-5 10 -11 10 -6 0 -17 7 -25 15 -9 8 -24 15 -35 15 -10 0 -19 5 -19 10 0 6 -9
10 -20 10 -11 0 -20 5 -20 10 0 6 -7 10 -15 10 -8 0 -15 5 -15 10 0 6 -9 10
-20 10 -11 0 -20 5 -20 10 0 6 -11 10 -25 10 -14 0 -25 4 -25 10 0 5 -22 12
-50 16 -27 4 -50 10 -50 15 0 5 -11 9 -25 9 -14 0 -25 5 -25 10 0 6 -18 10
-40 10 -22 0 -40 5 -40 10 0 6 -27 10 -60 10 -33 0 -60 4 -60 10 0 6 -28 10
-65 10 -37 0 -65 4 -65 10 0 6 -38 10 -95 10 -57 0 -95 -4 -95 -10z"/>
<path d="M3640 6340 c0 -5 -25 -10 -55 -10 -30 0 -55 -4 -55 -10 0 -5 -20 -10
-45 -10 -25 0 -45 -4 -45 -9 0 -5 -27 -12 -60 -16 -33 -4 -60 -11 -60 -16 0
-5 -7 -9 -15 -9 -8 0 -15 -4 -15 -10 0 -5 -9 -10 -20 -10 -11 0 -20 -4 -20
-10 0 -5 -9 -10 -20 -10 -11 0 -20 -4 -20 -10 0 -5 -7 -10 -15 -10 -8 0 -15
-4 -15 -10 0 -5 -9 -10 -19 -10 -11 0 -26 -7 -35 -15 -8 -8 -18 -15 -23 -15
-5 0 -15 -9 -23 -20 -8 -11 -21 -20 -28 -20 -8 0 -29 -16 -48 -35 -18 -19 -39
-35 -45 -35 -6 0 -28 -19 -50 -42 -21 -24 -43 -47 -48 -52 -5 -4 -29 -28 -54
-53 -25 -25 -49 -50 -55 -55 -5 -6 -35 -34 -66 -64 -31 -30 -56 -59 -56 -65 0
-6 -22 -32 -50 -59 -27 -27 -50 -53 -50 -59 0 -6 -11 -21 -25 -35 -14 -14 -25
-32 -25 -41 0 -8 -4 -15 -8 -15 -17 0 -49 -36 -56 -62 -3 -16 -11 -28 -16 -28
-6 0 -10 -5 -10 -11 0 -6 -13 -24 -30 -39 -16 -15 -30 -34 -30 -40 0 -7 -16
-27 -35 -46 -19 -18 -35 -38 -35 -44 0 -6 -25 -36 -55 -65 -30 -30 -55 -59
-55 -65 0 -8 -211 -222 -292 -297 -25 -23 -38 -42 -38 -55 0 -8 -9 -20 -20
-28 -13 -9 -20 -26 -20 -47 0 -30 3 -33 30 -33 17 0 30 -4 30 -10 0 -6 43 -10
109 -10 60 0 111 -4 113 -9 2 -6 352 -12 858 -16 845 -7 855 -7 878 12 12 11
22 27 22 34 0 8 9 21 20 29 11 8 20 18 20 23 0 7 9 20 38 52 6 7 12 20 12 27
0 8 10 20 21 28 12 8 31 25 43 38 62 66 132 132 142 132 3 0 18 13 33 29 15
16 40 31 57 35 17 4 36 16 44 26 8 11 22 20 32 20 10 0 18 5 18 10 0 6 9 10
20 10 11 0 20 5 20 10 0 6 11 10 25 10 14 0 25 4 25 9 0 6 20 13 45 17 25 3
45 10 45 15 0 5 18 9 40 9 22 0 40 5 40 10 0 6 11 10 25 10 14 0 25 5 25 10 0
6 13 10 29 10 21 0 32 6 36 20 3 11 13 20 21 20 25 0 44 26 44 59 0 17 5 31
10 31 6 0 10 11 10 25 0 14 -4 25 -10 25 -5 0 -10 23 -10 50 0 28 -4 50 -10
50 -5 0 -10 16 -10 35 0 19 -4 35 -10 35 -5 0 -10 9 -10 20 0 11 -4 20 -9 20
-5 0 -12 20 -15 45 -4 25 -11 45 -17 45 -5 0 -9 7 -9 15 0 8 -4 15 -10 15 -5
0 -10 8 -10 18 0 10 -9 24 -20 32 -11 8 -20 22 -20 31 0 9 -7 19 -15 23 -8 3
-15 13 -15 22 0 9 -13 29 -30 44 -16 15 -30 31 -30 34 0 10 -100 116 -142 152
-7 6 -20 21 -28 33 -8 11 -21 21 -30 21 -9 0 -22 9 -30 20 -8 11 -29 23 -47
26 -18 3 -33 10 -33 15 0 5 -9 9 -20 9 -11 0 -20 5 -20 10 0 6 -9 10 -20 10
-11 0 -20 5 -20 10 0 6 -11 10 -25 10 -14 0 -25 5 -25 10 0 6 -9 10 -20 10
-11 0 -20 4 -20 9 0 5 -25 13 -55 16 -30 4 -55 11 -55 16 0 5 -16 9 -35 9 -19
0 -35 5 -35 10 0 6 -16 10 -35 10 -19 0 -35 5 -35 10 0 6 -28 10 -65 10 -37 0
-65 -4 -65 -10z m90 -70 c0 -5 16 -10 35 -10 19 0 35 -4 35 -10 0 -5 18 -10
40 -10 22 0 40 -4 40 -10 0 -5 7 -10 15 -10 8 0 15 -4 15 -10 0 -5 14 -10 30
-10 17 0 30 -4 30 -10 0 -5 7 -10 15 -10 8 0 25 -11 39 -25 14 -14 31 -25 38
-25 8 0 20 -10 28 -21 19 -27 32 -40 59 -59 11 -8 21 -21 21 -30 0 -9 9 -22
20 -30 11 -8 20 -22 20 -32 0 -10 4 -18 10 -18 5 0 12 -16 16 -35 3 -19 10
-35 15 -35 5 0 9 -11 9 -25 0 -14 5 -25 10 -25 6 0 10 -13 10 -30 0 -16 5 -30
10 -30 6 0 10 -58 10 -155 0 -97 -4 -155 -10 -155 -5 0 -10 -13 -10 -30 0 -16
-4 -30 -10 -30 -5 0 -10 -11 -10 -25 0 -14 -4 -25 -9 -25 -5 0 -11 -14 -15
-31 -3 -17 -19 -43 -36 -59 -16 -15 -30 -33 -30 -39 0 -17 -118 -131 -135
-131 -8 0 -15 -4 -15 -10 0 -5 -6 -10 -14 -10 -8 0 -16 -5 -18 -10 -2 -6 -27
-13 -56 -17 -28 -3 -52 -10 -52 -14 0 -5 -79 -9 -175 -9 -96 0 -175 4 -175 9
0 4 -19 11 -42 14 -24 3 -44 11 -46 16 -2 6 -10 11 -19 11 -8 0 -28 14 -43 30
-15 17 -33 30 -39 30 -15 0 -141 128 -141 143 0 7 -9 19 -20 27 -11 8 -20 22
-20 32 0 10 -4 18 -10 18 -5 0 -10 9 -10 20 0 11 -4 20 -10 20 -5 0 -10 7 -10
15 0 8 -4 15 -9 15 -5 0 -13 29 -16 65 -4 36 -11 65 -16 65 -5 0 -9 50 -9 110
0 61 4 110 9 110 5 0 12 29 16 65 3 36 11 65 16 65 5 0 9 9 9 20 0 11 5 20 10
20 6 0 10 7 10 15 0 8 5 15 10 15 6 0 10 9 10 20 0 11 5 20 10 20 6 0 10 7 10
16 0 25 136 154 170 161 17 3 30 9 30 14 0 5 9 9 20 9 11 0 20 5 20 10 0 6 11
10 25 10 14 0 25 5 25 10 0 6 18 10 40 10 22 0 40 5 40 10 0 6 16 10 35 10 19
0 35 5 35 10 0 6 25 10 55 10 30 0 55 -4 55 -10z"/>
<path d="M3560 6120 c0 -5 -11 -10 -25 -10 -14 0 -25 -4 -25 -10 0 -5 -9 -10
-20 -10 -11 0 -20 -4 -20 -10 0 -5 -7 -10 -15 -10 -19 0 -145 -126 -145 -145
0 -8 -4 -15 -10 -15 -5 0 -10 -9 -10 -20 0 -11 -4 -20 -10 -20 -5 0 -10 -9
-10 -20 0 -11 -4 -20 -10 -20 -5 0 -10 -7 -10 -15 0 -8 -4 -15 -10 -15 -5 0
-10 -18 -10 -40 0 -22 -4 -40 -10 -40 -6 0 -10 -37 -10 -90 0 -53 4 -90 10
-90 6 0 10 -11 10 -25 0 -14 5 -25 10 -25 6 0 10 -13 10 -30 0 -16 5 -30 10
-30 6 0 10 -9 10 -19 0 -11 9 -23 20 -26 11 -3 20 -15 20 -25 0 -18 19 -39 94
-107 14 -13 30 -23 36 -23 5 0 10 -4 10 -10 0 -5 9 -10 20 -10 11 0 20 -4 20
-10 0 -5 9 -10 20 -10 11 0 20 -4 20 -10 0 -5 11 -10 25 -10 14 0 25 -4 25
-10 0 -6 47 -10 120 -10 73 0 120 4 120 10 0 6 9 10 20 10 11 0 20 5 20 10 0
6 7 10 15 10 8 0 15 5 15 10 0 6 7 10 15 10 9 0 28 12 42 26 33 33 19 44 -54
44 -29 0 -53 5 -53 10 0 6 -13 10 -30 10 -16 0 -30 5 -30 10 0 6 -7 10 -15 10
-8 0 -15 5 -15 10 0 6 -9 10 -20 10 -11 0 -20 5 -20 10 0 6 -7 10 -15 10 -19
0 -95 75 -95 95 0 8 -4 15 -10 15 -5 0 -10 6 -10 14 0 8 -6 16 -12 18 -10 4
-13 38 -13 128 0 90 3 124 13 127 6 3 12 13 12 24 0 10 5 19 10 19 6 0 10 5
10 10 0 10 21 34 87 102 35 37 51 48 68 48 8 0 15 5 15 10 0 6 7 10 15 10 8 0
15 5 15 10 0 6 9 10 20 10 11 0 20 5 20 10 0 6 9 10 20 10 11 0 20 5 20 10 0
6 7 10 15 10 8 0 15 4 15 9 0 11 -25 21 -51 21 -10 0 -19 5 -19 10 0 6 -9 10
-20 10 -11 0 -20 5 -20 10 0 6 -16 10 -35 10 -19 0 -35 5 -35 10 0 6 -35 10
-85 10 -50 0 -85 -4 -85 -10z"/>
<path d="M3808 5926 c-9 -9 -21 -16 -27 -16 -6 0 -11 -9 -11 -20 0 -11 -4 -20
-10 -20 -5 0 -10 -9 -10 -20 0 -11 -4 -20 -10 -20 -5 0 -10 -14 -10 -30 0 -68
79 -103 194 -86 37 6 46 11 46 27 0 10 5 19 10 19 6 0 10 14 10 30 0 17 -4 30
-10 30 -5 0 -10 11 -10 25 0 14 -4 25 -10 25 -5 0 -10 7 -10 16 0 27 -28 45
-78 51 -37 4 -52 1 -64 -11z"/>
<path d="M6650 6301 c0 -4 -39 -11 -87 -15 -49 -3 -89 -11 -91 -16 -2 -6 -12
-10 -23 -10 -10 0 -19 -4 -19 -10 0 -5 -13 -10 -30 -10 -16 0 -30 -4 -30 -10
0 -5 -5 -10 -11 -10 -7 0 -19 -8 -28 -18 -9 -11 -28 -22 -43 -26 -16 -3 -28
-11 -28 -16 0 -6 -5 -10 -11 -10 -6 0 -24 -13 -39 -30 -15 -16 -33 -30 -39
-30 -15 0 -161 -150 -161 -166 0 -3 -13 -19 -30 -34 -16 -15 -30 -35 -30 -43
0 -8 -7 -17 -15 -21 -8 -3 -15 -15 -15 -26 0 -11 -4 -20 -10 -20 -5 0 -10 -8
-10 -18 0 -10 -9 -24 -20 -32 -11 -8 -20 -25 -20 -37 0 -13 -4 -23 -10 -23 -5
0 -10 -9 -10 -19 0 -11 -5 -21 -10 -23 -6 -2 -13 -33 -17 -71 -3 -37 -10 -67
-14 -67 -5 0 -9 -29 -9 -65 0 -37 4 -65 10 -65 6 0 10 -20 10 -43 0 -47 25
-87 54 -87 9 0 16 -4 16 -10 0 -5 9 -10 20 -10 11 0 20 -4 20 -10 0 -5 11 -10
25 -10 14 0 25 -4 25 -10 0 -5 14 -10 30 -10 17 0 30 -4 30 -9 0 -5 25 -13 55
-16 30 -4 55 -11 55 -16 0 -5 7 -9 15 -9 8 0 15 -4 15 -10 0 -5 9 -10 20 -10
11 0 20 -4 20 -10 0 -5 9 -10 19 -10 11 0 23 -9 26 -20 3 -11 15 -20 25 -20
10 0 25 -7 34 -15 8 -8 22 -15 30 -15 9 0 16 -4 16 -8 0 -14 36 -52 49 -52 12
0 32 -14 54 -38 11 -12 58 -59 119 -119 38 -37 68 -72 68 -78 0 -3 15 -21 33
-40 17 -19 43 -46 56 -61 l24 -26 915 3 c721 3 916 7 920 17 2 7 23 12 58 12
30 0 54 5 54 10 0 6 5 10 11 10 14 0 39 25 39 39 0 6 -81 92 -180 190 -99 99
-180 185 -180 191 0 14 -77 90 -91 90 -5 0 -9 9 -9 20 0 10 -16 35 -35 54 -19
20 -35 38 -35 41 0 3 -10 17 -22 30 -40 42 -48 54 -48 70 0 8 -4 15 -8 15 -14
0 -52 36 -52 49 0 7 -6 19 -12 26 -28 31 -38 44 -38 50 0 4 -18 24 -40 45 -22
21 -40 41 -40 45 0 6 -14 24 -47 60 -13 13 -23 31 -23 39 0 8 -8 17 -18 20
-10 3 -24 16 -32 27 -8 12 -30 37 -47 55 -18 18 -33 36 -33 39 0 9 -47 59
-125 133 -19 18 -35 37 -35 42 0 6 -7 10 -15 10 -9 0 -27 10 -40 23 -37 34
-54 47 -61 47 -3 0 -19 14 -34 30 -15 17 -35 30 -44 30 -9 0 -16 4 -16 9 0 5
-11 12 -25 15 -14 4 -25 11 -25 16 0 6 -9 10 -20 10 -11 0 -20 5 -20 10 0 6
-7 10 -15 10 -8 0 -15 5 -15 10 0 6 -13 10 -30 10 -16 0 -30 5 -30 10 0 6 -13
10 -29 10 -16 0 -31 4 -33 10 -1 5 -42 13 -90 16 -49 4 -88 11 -88 15 0 5 -74
9 -165 9 -91 0 -165 -4 -165 -9z m310 -51 c0 -5 18 -10 40 -10 22 0 40 -4 40
-10 0 -5 7 -10 15 -10 8 0 15 -4 15 -10 0 -5 14 -10 30 -10 17 0 30 -4 30 -10
0 -5 11 -12 25 -16 14 -3 25 -10 25 -15 0 -5 7 -9 15 -9 20 0 155 -136 155
-155 0 -8 5 -15 10 -15 6 0 10 -9 10 -19 0 -11 5 -21 11 -23 5 -2 13 -22 16
-46 3 -23 10 -42 14 -42 5 0 9 -20 9 -45 0 -25 5 -45 10 -45 6 0 10 -43 10
-110 0 -67 -4 -110 -10 -110 -5 0 -10 -20 -10 -45 0 -25 -4 -45 -9 -45 -4 0
-11 -19 -14 -42 -3 -24 -11 -44 -16 -46 -6 -2 -11 -12 -11 -23 0 -10 -4 -19
-10 -19 -5 0 -10 -9 -10 -20 0 -11 -4 -20 -10 -20 -8 0 -36 -26 -67 -64 -7 -8
-13 -22 -13 -31 0 -8 -7 -15 -15 -15 -16 0 -28 -8 -70 -47 -13 -13 -29 -23
-35 -23 -5 0 -10 -4 -10 -10 0 -5 -9 -10 -20 -10 -11 0 -20 -4 -20 -10 0 -5
-9 -10 -20 -10 -11 0 -20 -4 -20 -9 0 -5 -25 -13 -55 -16 -30 -4 -55 -11 -55
-16 0 -5 -61 -9 -135 -9 -74 0 -135 4 -135 9 0 5 -25 12 -55 16 -30 3 -55 11
-55 16 0 5 -8 9 -18 9 -10 0 -24 9 -32 20 -8 11 -18 20 -23 20 -8 0 -35 23
-90 77 -46 46 -57 60 -57 77 0 8 -9 18 -20 21 -11 3 -20 15 -20 26 0 10 -4 19
-10 19 -5 0 -10 9 -10 20 0 11 -4 20 -10 20 -5 0 -12 16 -16 35 -3 19 -10 35
-15 35 -5 0 -9 14 -9 30 0 17 -4 30 -10 30 -5 0 -10 16 -10 35 0 19 -4 35 -10
35 -6 0 -10 32 -10 75 0 43 4 75 10 75 6 0 10 16 10 35 0 19 5 35 10 35 6 0
10 11 10 25 0 14 4 25 9 25 5 0 12 18 16 40 4 22 11 40 16 40 5 0 9 6 9 13 0
7 9 19 20 27 11 8 20 20 20 28 0 7 11 24 25 38 14 14 25 29 25 35 0 15 68 79
84 79 8 0 17 9 21 19 4 13 19 22 45 26 22 4 40 11 40 16 0 5 9 9 20 9 11 0 20
5 20 10 0 6 7 10 15 10 8 0 15 5 15 10 0 6 18 10 40 10 22 0 40 5 40 10 0 6
48 10 125 10 77 0 125 -4 125 -10z"/>
<path d="M6800 6120 c0 -5 -18 -10 -40 -10 -22 0 -40 -4 -40 -10 0 -5 -11 -10
-25 -10 -14 0 -25 -4 -25 -9 0 -4 -18 -11 -40 -14 -35 -4 -70 -25 -70 -41 0
-3 16 -6 35 -6 19 0 35 -4 35 -10 0 -5 14 -10 30 -10 17 0 30 -4 30 -10 0 -5
11 -10 25 -10 14 0 25 -4 25 -10 0 -5 7 -10 15 -10 16 0 34 -12 58 -38 7 -7
27 -28 45 -47 17 -19 32 -37 32 -41 0 -4 8 -14 19 -23 11 -10 21 -37 26 -69 4
-28 11 -52 16 -52 5 0 9 -34 9 -75 0 -41 -4 -75 -9 -75 -5 0 -11 -18 -15 -41
-5 -30 -17 -52 -47 -80 -22 -21 -46 -39 -53 -39 -6 0 -18 -9 -26 -20 -8 -11
-22 -20 -32 -20 -10 0 -18 -4 -18 -10 0 -5 -9 -10 -20 -10 -11 0 -20 -4 -20
-10 0 -5 -16 -10 -35 -10 -19 0 -35 -4 -35 -10 0 -6 -28 -10 -65 -10 l-66 0
25 -25 c14 -14 32 -25 40 -25 8 0 18 -9 21 -20 3 -11 15 -20 26 -20 10 0 19
-4 19 -10 0 -5 14 -10 30 -10 17 0 30 -4 30 -10 0 -6 45 -10 115 -10 70 0 115
4 115 10 0 6 14 10 30 10 17 0 30 5 30 10 0 6 9 10 19 10 11 0 23 9 26 20 3
11 13 20 21 20 13 0 35 17 76 58 51 50 78 83 78 92 0 5 5 10 10 10 6 0 10 9
10 20 0 11 5 20 10 20 6 0 10 13 10 29 0 16 6 31 13 34 17 5 17 299 -1 305 -6
2 -12 15 -12 28 0 13 -4 24 -10 24 -5 0 -10 8 -10 18 0 10 -9 24 -20 32 -11 8
-20 18 -20 23 0 4 -10 19 -22 32 -13 13 -34 37 -48 54 -14 17 -33 31 -42 31
-10 0 -18 4 -18 10 0 5 -16 12 -35 16 -19 3 -35 10 -35 15 0 5 -13 9 -30 9
-16 0 -30 5 -30 10 0 6 -16 10 -35 10 -19 0 -35 5 -35 10 0 6 -16 10 -35 10
-19 0 -35 -4 -35 -10z"/>
<path d="M6604 5926 c-3 -9 -15 -16 -25 -16 -12 0 -19 -7 -19 -20 0 -11 -4
-20 -10 -20 -5 0 -10 -9 -10 -20 0 -11 -4 -20 -10 -20 -5 0 -10 -14 -10 -30 0
-67 81 -103 194 -86 36 6 46 11 46 27 0 10 5 19 10 19 6 0 10 14 10 30 0 17
-4 30 -10 30 -5 0 -10 11 -10 25 0 14 -4 25 -10 25 -5 0 -10 7 -10 16 0 27
-30 47 -81 52 -39 4 -50 1 -55 -12z"/>
<path d="M4540 5020 c0 -5 -18 -10 -40 -10 -22 0 -40 -4 -40 -10 0 -5 -7 -10
-15 -10 -8 0 -15 -4 -15 -10 0 -5 -9 -10 -20 -10 -11 0 -20 -4 -20 -10 0 -5
-9 -10 -20 -10 -11 0 -20 -4 -20 -9 0 -5 -15 -13 -32 -17 -18 -3 -40 -15 -49
-25 -9 -11 -19 -19 -23 -19 -4 0 -22 -15 -41 -32 -31 -29 -50 -48 -124 -122
-10 -10 -34 -33 -52 -52 -42 -40 -59 -61 -59 -70 0 -3 -13 -19 -30 -34 -16
-15 -30 -35 -30 -44 0 -9 -4 -16 -10 -16 -5 0 -12 -11 -16 -25 -3 -14 -10 -25
-15 -25 -5 0 -9 -13 -9 -30 0 -16 -4 -30 -10 -30 -5 0 -10 -9 -10 -19 0 -11
-9 -23 -20 -26 -11 -3 -20 -11 -20 -16 0 -5 -11 -9 -25 -9 -14 0 -25 4 -25 9
0 5 -34 12 -75 16 -41 4 -75 11 -75 16 0 5 -20 9 -45 9 -25 0 -45 5 -45 10 0
6 -20 10 -45 10 -25 0 -45 5 -45 10 0 6 -18 10 -40 10 -22 0 -40 5 -40 10 0 6
-25 10 -55 10 -30 0 -55 5 -55 10 0 6 -30 10 -70 10 -40 0 -70 4 -70 10 0 6
-60 10 -160 10 -100 0 -160 -4 -160 -10 0 -5 18 -10 40 -10 22 0 40 -4 40 -10
0 -6 28 -10 65 -10 37 0 65 -4 65 -10 0 -5 20 -10 45 -10 25 0 45 -4 45 -10 0
-5 16 -10 35 -10 19 0 35 -4 35 -10 0 -5 16 -10 35 -10 19 0 35 -4 35 -9 0 -4
28 -11 63 -15 34 -3 64 -11 65 -16 2 -6 17 -10 33 -10 16 0 29 -4 29 -10 0 -5
11 -10 25 -10 14 0 25 -4 25 -10 0 -5 14 -10 30 -10 17 0 30 -4 30 -10 0 -5
11 -10 25 -10 14 0 25 -4 25 -9 0 -5 18 -12 40 -16 22 -4 40 -11 40 -16 0 -5
7 -9 15 -9 8 0 15 -4 15 -10 0 -5 7 -10 15 -10 9 0 31 -16 51 -35 l35 -35 -56
0 c-30 0 -55 -4 -55 -10 0 -6 -105 -10 -295 -10 -190 0 -295 -4 -295 -10 0 -6
-53 -10 -140 -10 -87 0 -140 -4 -140 -10 0 -5 -20 -10 -45 -10 -25 0 -45 -4
-45 -10 0 -6 35 -10 85 -10 47 0 85 -4 85 -8 0 -5 134 -12 297 -15 193 -4 299
-10 301 -17 2 -5 28 -10 58 -10 30 0 54 -4 54 -10 0 -5 18 -10 40 -10 22 0 40
-4 40 -10 0 -5 11 -10 25 -10 14 0 25 -4 25 -10 0 -5 9 -10 20 -10 11 0 20 -5
20 -11 0 -16 -26 -39 -44 -39 -9 0 -16 -4 -16 -10 0 -5 -7 -10 -15 -10 -8 0
-15 -4 -15 -10 0 -5 -18 -10 -40 -10 -22 0 -40 -4 -40 -10 0 -5 -11 -10 -25
-10 -14 0 -25 -4 -25 -9 0 -4 -28 -11 -62 -15 -35 -3 -64 -11 -66 -16 -2 -6
-21 -10 -43 -10 -21 0 -39 -4 -39 -10 0 -5 -11 -10 -25 -10 -14 0 -25 -4 -25
-10 0 -5 -13 -10 -30 -10 -16 0 -30 -4 -30 -10 0 -5 -11 -10 -25 -10 -14 0
-25 -4 -25 -10 0 -5 -9 -10 -20 -10 -11 0 -20 -4 -20 -9 0 -5 -20 -12 -45 -15
-25 -4 -45 -11 -45 -17 0 -5 -9 -9 -20 -9 -11 0 -20 -4 -20 -10 0 -5 -7 -10
-15 -10 -8 0 -15 -4 -15 -10 0 -5 25 -10 55 -10 30 0 55 5 55 10 0 6 20 10 45
10 25 0 45 5 45 10 0 6 16 10 35 10 19 0 35 4 35 9 0 5 43 12 95 16 52 4 95
11 95 16 0 5 32 9 70 9 40 0 70 4 70 10 0 6 47 10 120 10 113 0 120 -1 120
-20 0 -11 5 -20 10 -20 6 0 10 -6 10 -13 0 -7 9 -19 20 -27 11 -8 20 -20 20
-28 0 -16 165 -182 181 -182 6 0 24 -13 39 -30 15 -16 31 -30 35 -30 3 0 13
-7 21 -15 9 -8 24 -15 35 -15 10 0 19 -4 19 -10 0 -5 9 -10 20 -10 11 0 20 -4
20 -10 0 -5 16 -10 35 -10 19 0 35 -4 35 -10 0 -5 16 -10 35 -10 19 0 35 -4
35 -10 0 -6 58 -10 155 -10 97 0 155 4 155 10 0 6 18 10 40 10 22 0 40 5 40
10 0 6 11 10 25 10 14 0 25 5 25 10 0 6 14 10 30 10 17 0 30 4 30 10 0 5 16
12 35 16 19 3 35 10 35 15 0 5 7 9 16 9 9 0 29 15 45 33 36 40 36 40 77 76 17
16 32 36 32 44 0 9 6 17 13 20 8 2 12 27 12 74 0 72 -15 103 -49 103 -9 0 -16
5 -16 10 0 6 -9 10 -20 10 -11 0 -20 5 -20 10 0 6 -11 10 -25 10 -14 0 -25 5
-25 10 0 6 -9 10 -20 10 -11 0 -20 4 -20 9 0 5 -16 12 -35 15 -19 4 -35 11
-35 16 0 6 -7 10 -16 10 -14 0 -30 15 -81 74 -6 6 -20 18 -32 26 -11 8 -21 22
-21 32 0 10 -4 18 -10 18 -5 0 -10 9 -10 19 0 11 -5 21 -11 23 -6 2 -14 27
-17 56 -2 29 -8 52 -13 52 -5 0 -9 11 -9 25 0 14 5 25 10 25 6 0 10 14 10 30
0 18 6 33 15 36 8 4 15 13 15 21 0 18 45 63 63 63 8 0 17 7 21 15 3 8 15 15
26 15 11 0 20 5 20 10 0 6 9 10 20 10 11 0 20 5 20 10 0 6 14 10 30 10 46 0
80 39 80 90 0 22 -4 40 -10 40 -5 0 -10 16 -10 35 0 19 -4 35 -10 35 -5 0 -10
14 -10 30 0 17 -4 30 -10 30 -5 0 -10 9 -10 20 0 11 -4 20 -9 20 -5 0 -12 20
-15 45 -4 25 -11 45 -17 45 -5 0 -9 7 -9 15 0 8 -4 15 -10 15 -5 0 -10 8 -10
18 0 10 -9 24 -20 32 -11 8 -20 22 -20 31 0 9 -7 19 -15 23 -8 3 -15 15 -15
26 0 12 -7 20 -18 20 -10 0 -24 9 -32 20 -9 13 -26 20 -47 20 -18 0 -33 5 -33
10 0 6 -25 10 -55 10 -30 0 -55 -4 -55 -10z"/>
<path d="M5840 5020 c0 -5 -9 -10 -20 -10 -18 0 -110 -80 -110 -95 0 -4 -7
-13 -15 -21 -8 -9 -15 -24 -15 -35 0 -10 -4 -19 -10 -19 -5 0 -10 -7 -10 -15
0 -8 -4 -15 -10 -15 -5 0 -10 -9 -10 -20 0 -11 -4 -20 -10 -20 -5 0 -10 -9
-10 -20 0 -11 -4 -20 -10 -20 -5 0 -10 -7 -10 -15 0 -8 -4 -15 -9 -15 -5 0
-12 -25 -16 -55 -3 -30 -11 -55 -16 -55 -5 0 -9 -34 -9 -75 0 -41 4 -75 9 -75
5 0 13 -9 16 -20 5 -16 15 -20 56 -20 27 0 49 -4 49 -10 0 -5 5 -10 10 -10 27
0 117 -93 125 -128 3 -18 11 -32 16 -32 5 0 9 -9 9 -20 0 -11 5 -20 10 -20 6
0 10 -20 10 -45 0 -25 -4 -45 -10 -45 -5 0 -10 -13 -10 -29 0 -16 -6 -31 -15
-35 -8 -3 -15 -13 -15 -21 0 -16 -56 -75 -99 -105 -12 -8 -24 -22 -27 -32 -3
-10 -12 -18 -21 -18 -9 0 -23 -8 -32 -19 -9 -10 -31 -22 -49 -25 -17 -4 -32
-12 -32 -17 0 -5 -9 -9 -20 -9 -11 0 -20 -4 -20 -10 0 -5 -11 -10 -25 -10 -14
0 -25 -4 -25 -10 0 -5 -7 -10 -15 -10 -9 0 -32 -17 -53 -37 -35 -35 -37 -41
-36 -95 1 -51 5 -61 33 -87 17 -16 31 -36 31 -44 0 -9 9 -19 20 -22 11 -3 20
-10 20 -14 0 -14 37 -51 50 -51 7 0 20 -8 29 -19 9 -10 26 -21 39 -25 12 -4
22 -12 22 -17 0 -5 9 -9 20 -9 11 0 20 -4 20 -10 0 -5 11 -10 25 -10 14 0 25
-4 25 -10 0 -5 14 -10 30 -10 17 0 30 -4 30 -10 0 -5 16 -10 35 -10 19 0 35
-4 35 -10 0 -6 47 -10 120 -10 73 0 120 4 120 10 0 6 20 10 45 10 25 0 45 5
45 10 0 6 14 10 30 10 17 0 30 5 30 10 0 6 11 10 25 10 14 0 25 5 25 10 0 6 9
10 20 10 11 0 20 4 20 9 0 5 16 12 35 15 19 4 35 11 35 16 0 6 7 10 16 10 9 0
29 14 44 30 15 17 31 30 34 30 15 0 116 96 116 110 0 6 11 21 25 34 14 13 25
29 25 36 0 13 57 70 70 70 5 0 12 9 15 20 6 18 15 20 101 20 56 0 94 -4 94
-10 0 -6 30 -10 70 -10 39 0 70 -4 70 -9 0 -4 42 -11 93 -15 50 -4 94 -11 95
-16 2 -6 28 -10 58 -10 30 0 54 -4 54 -10 0 -5 25 -10 55 -10 30 0 55 -4 55
-10 0 -5 20 -10 45 -10 25 0 45 5 45 10 0 6 -9 10 -20 10 -11 0 -20 5 -20 10
0 6 -7 10 -15 10 -8 0 -15 4 -15 9 0 6 -20 13 -45 17 -25 3 -45 10 -45 15 0 5
-13 9 -30 9 -16 0 -30 5 -30 10 0 6 -11 10 -25 10 -14 0 -25 5 -25 10 0 6 -13
10 -30 10 -16 0 -30 5 -30 10 0 6 -13 10 -30 10 -16 0 -30 5 -30 10 0 6 -11
10 -25 10 -14 0 -25 4 -25 9 0 5 -29 12 -65 16 -36 3 -65 11 -65 16 0 5 -16 9
-35 9 -19 0 -35 5 -35 10 0 6 -13 10 -30 10 -16 0 -30 5 -30 10 0 6 -7 10 -15
10 -8 0 -15 5 -15 10 0 6 -9 10 -20 10 -15 0 -20 7 -20 25 0 18 5 25 20 25 11
0 20 5 20 10 0 6 11 10 25 10 14 0 25 5 25 10 0 6 16 10 35 10 19 0 35 5 35
10 0 6 24 10 54 10 30 0 56 4 58 10 2 6 129 12 336 17 182 3 332 10 332 15 0
4 25 8 55 8 58 0 63 3 41 26 -10 9 -37 14 -85 14 -41 0 -71 4 -71 10 0 6 -70
10 -190 10 -112 0 -190 4 -190 9 0 6 -108 11 -264 13 -145 2 -268 6 -271 10
-9 9 19 38 37 38 8 0 20 9 28 20 8 11 20 20 27 20 7 0 13 4 13 9 0 4 19 11 42
14 24 3 44 11 46 16 2 6 17 11 33 11 16 0 29 5 29 10 0 6 9 10 20 10 11 0 20
5 20 10 0 6 11 10 25 10 14 0 25 5 25 10 0 6 16 10 35 10 19 0 35 4 35 9 0 5
27 12 60 16 33 4 60 11 60 16 0 5 16 9 35 9 19 0 35 5 35 10 0 6 20 10 45 10
25 0 45 5 45 10 0 6 20 10 45 10 25 0 45 5 45 10 0 6 20 10 45 10 25 0 45 5
45 10 0 6 -58 10 -155 10 -97 0 -155 -4 -155 -10 0 -6 -32 -10 -75 -10 -43 0
-75 -4 -75 -10 0 -5 -25 -10 -55 -10 -30 0 -55 -4 -55 -10 0 -5 -16 -10 -35
-10 -19 0 -35 -4 -35 -10 0 -5 -15 -10 -34 -10 -19 0 -36 -5 -38 -10 -4 -13
-156 -25 -192 -16 -16 4 -26 13 -26 24 0 10 -9 24 -20 32 -11 8 -20 21 -20 29
0 7 -8 21 -19 30 -10 9 -21 26 -25 39 -4 12 -12 22 -17 22 -5 0 -9 8 -9 18 0
10 -9 24 -21 32 -40 28 -59 47 -59 59 0 12 -14 32 -38 54 -61 56 -102 99 -102
107 0 5 -12 13 -27 16 -27 7 -83 57 -83 75 0 5 -7 9 -16 9 -8 0 -22 7 -30 15
-9 8 -24 15 -34 15 -10 0 -22 9 -25 20 -3 11 -15 20 -26 20 -10 0 -19 5 -19
10 0 6 -9 10 -20 10 -11 0 -20 5 -20 10 0 6 -16 10 -35 10 -19 0 -35 5 -35 10
0 6 -32 10 -75 10 -43 0 -75 -4 -75 -10z"/>
<path d="M4843 4134 c-15 -7 -18 -84 -3 -84 6 0 10 -5 10 -10 0 -6 11 -22 25
-36 14 -14 25 -29 25 -34 0 -6 27 -10 60 -10 33 0 60 4 60 10 0 6 5 10 11 10
17 0 39 27 39 49 0 12 -4 21 -10 21 -5 0 -10 7 -10 16 0 17 -23 44 -38 44 -6
0 -12 5 -14 11 -4 12 -134 23 -155 13z"/>
<path d="M5493 4133 c-15 -3 -25 -14 -30 -31 -3 -15 -14 -34 -25 -43 -25 -22
-23 -45 7 -74 20 -21 34 -25 80 -25 30 0 55 5 55 10 0 6 7 10 15 10 9 0 27 11
40 25 20 19 25 34 25 73 0 47 -1 50 -31 56 -34 6 -100 6 -136 -1z"/>
<path d="M5130 1520 l0 -1340 2145 0 2145 0 0 605 0 605 -735 0 c-483 0 -735
3 -735 10 0 7 -253 10 -740 10 l-740 0 0 300 c0 193 -4 300 -10 300 -7 0 -10
148 -10 425 l0 425 -660 0 -660 0 0 -1340z"/>
<path d="M3200 2545 c0 -19 -4 -35 -10 -35 -5 0 -10 -20 -10 -45 0 -25 -4 -45
-10 -45 -5 0 -10 -25 -10 -55 0 -30 -4 -55 -10 -55 -5 0 -10 -20 -10 -45 0
-25 -4 -45 -10 -45 -5 0 -10 -18 -10 -40 0 -22 -4 -40 -9 -40 -5 0 -13 -25
-16 -55 -4 -30 -11 -55 -16 -55 -5 0 -9 -9 -9 -20 0 -11 -4 -20 -10 -20 -5 0
-10 -7 -10 -15 0 -8 -4 -15 -10 -15 -5 0 -10 -9 -10 -20 0 -11 -4 -20 -10 -20
-5 0 -10 -9 -10 -20 0 -11 -4 -20 -9 -20 -5 0 -12 -11 -15 -25 -4 -14 -11 -25
-16 -25 -6 0 -10 -9 -10 -20 0 -11 -4 -20 -10 -20 -5 0 -10 -5 -10 -10 0 -12
-49 -66 -140 -153 -19 -19 -42 -44 -50 -56 -8 -11 -22 -21 -32 -21 -9 0 -28
-11 -42 -25 -14 -14 -30 -25 -36 -25 -5 0 -10 -4 -10 -10 0 -5 -9 -10 -20 -10
-11 0 -20 -4 -20 -10 0 -5 -9 -10 -19 -10 -11 0 -21 -5 -23 -11 -2 -5 -22 -13
-46 -16 -23 -3 -42 -10 -42 -14 0 -5 -9 -9 -20 -9 -11 0 -20 -4 -20 -10 0 -5
-16 -10 -35 -10 -19 0 -35 -4 -35 -10 0 -5 -25 -10 -55 -10 -30 0 -55 -4 -55
-10 0 -6 -55 -10 -145 -10 -90 0 -145 4 -145 10 0 6 -28 10 -65 10 -37 0 -65
4 -65 10 0 6 -18 10 -40 10 -22 0 -40 5 -40 10 0 6 -16 10 -35 10 -19 0 -35 4
-35 9 0 5 -25 13 -55 16 -30 4 -55 11 -55 16 0 5 -20 9 -45 9 -25 0 -45 5 -45
10 0 6 -18 10 -41 10 -39 0 -69 -17 -69 -39 0 -6 -4 -11 -10 -11 -5 0 -10 -13
-10 -30 0 -16 -4 -30 -10 -30 -5 0 -10 -9 -10 -19 0 -11 -5 -21 -11 -23 -5 -2
-13 -22 -16 -46 -3 -23 -10 -42 -14 -42 -5 0 -9 -9 -9 -20 0 -11 -4 -20 -10
-20 -5 0 -10 -7 -10 -15 0 -8 -4 -15 -10 -15 -5 0 -10 -13 -10 -30 0 -16 -4
-30 -10 -30 -5 0 -10 -7 -10 -15 0 -8 -4 -15 -9 -15 -5 0 -11 -22 -15 -50 -4
-28 -11 -50 -16 -50 -6 0 -10 -11 -10 -25 0 -14 -4 -25 -10 -25 -5 0 -10 -9
-10 -20 0 -11 -4 -20 -10 -20 -5 0 -10 -11 -10 -25 0 -14 -4 -25 -10 -25 -5 0
-10 -9 -10 -20 0 -11 -4 -20 -10 -20 -5 0 -10 -11 -10 -25 0 -14 -4 -25 -10
-25 -5 0 -12 -23 -16 -50 -4 -28 -10 -50 -15 -50 -5 0 -9 -11 -9 -25 0 -14 -4
-25 -10 -25 -5 0 -10 -9 -10 -20 0 -11 -4 -20 -10 -20 -5 0 -10 -11 -10 -25 0
-14 -4 -25 -10 -25 -5 0 -10 -13 -10 -29 0 -16 -4 -31 -8 -33 -5 -1 -12 -18
-15 -35 -5 -25 -3 -33 8 -33 8 0 15 -4 15 -10 0 -5 9 -10 20 -10 11 0 20 -4
20 -10 0 -5 11 -10 25 -10 14 0 25 -4 25 -10 0 -5 14 -10 30 -10 17 0 30 -4
30 -9 0 -5 34 -12 75 -16 41 -4 75 -11 75 -16 0 -5 11 -9 25 -9 14 0 25 -4 25
-10 0 -5 18 -10 40 -10 22 0 40 -4 40 -10 0 -5 16 -10 35 -10 19 0 35 -4 35
-10 0 -5 15 -10 34 -10 19 0 36 -6 38 -12 7 -19 1059 -19 1065 0 3 8 28 12 79
12 43 0 74 4 74 10 0 6 16 10 35 10 19 0 35 5 35 10 0 6 11 10 25 10 14 0 25
5 25 10 0 6 14 10 30 10 17 0 30 4 30 9 0 6 20 13 45 17 25 3 45 10 45 15 0 5
9 9 20 9 11 0 20 5 20 10 0 6 7 10 15 10 8 0 15 5 15 10 0 6 9 10 20 10 11 0
20 5 20 10 0 6 9 10 20 10 11 0 20 4 20 10 0 5 16 12 35 16 19 3 35 10 35 15
0 5 9 9 20 9 11 0 20 5 20 10 0 6 6 10 13 10 7 0 19 9 27 20 8 11 20 20 28 20
7 0 20 7 28 15 9 8 24 15 35 15 10 0 19 4 19 8 0 15 37 52 51 52 8 0 27 16 44
35 16 19 36 35 43 35 8 0 31 19 53 42 21 24 43 47 48 52 14 13 98 97 107 107
5 5 24 22 42 38 17 16 32 35 32 41 0 7 16 27 35 46 19 18 35 39 35 46 0 8 9
20 20 28 11 8 20 20 20 27 0 7 4 13 10 13 5 0 13 12 16 28 4 15 15 34 26 43
10 9 18 21 18 28 0 6 5 11 10 11 6 0 10 7 10 16 0 9 8 24 19 33 10 9 22 31 25
49 4 17 12 32 17 32 5 0 9 9 9 20 0 11 5 20 10 20 6 0 10 9 10 20 0 11 5 20
10 20 6 0 10 11 10 25 0 14 5 25 10 25 6 0 10 9 10 20 0 11 5 20 10 20 6 0 10
11 10 25 0 14 4 25 9 25 5 0 12 25 16 55 3 30 11 55 16 55 5 0 9 14 9 30 0 17
5 30 10 30 6 0 10 16 10 35 0 19 5 35 10 35 6 0 10 18 10 40 0 22 5 40 10 40
6 0 10 16 10 35 0 19 4 35 9 35 5 0 12 41 16 90 4 50 11 90 16 90 5 0 9 32 9
71 0 75 -12 99 -49 99 -12 0 -21 5 -21 10 0 6 -16 10 -35 10 -19 0 -35 4 -35
9 0 5 -27 12 -60 16 -33 4 -60 11 -60 16 0 5 -16 9 -35 9 -19 0 -35 5 -35 10
0 6 -11 10 -25 10 -14 0 -25 5 -25 10 0 6 -18 10 -40 10 -22 0 -40 5 -40 10 0
6 -16 10 -35 10 -19 0 -35 4 -35 9 0 5 -29 12 -65 16 -36 3 -65 11 -65 16 0 5
-16 9 -35 9 -19 0 -35 5 -35 10 0 6 -13 10 -30 10 -16 0 -30 5 -30 10 0 6 -16
10 -35 10 -19 0 -35 5 -35 10 0 6 -16 10 -35 10 -19 0 -35 4 -35 9 0 5 -29 13
-65 16 -36 4 -65 11 -65 16 0 5 -25 9 -55 9 l-55 0 0 -35z"/>
</g>
</svg>
